<svg xmlns="http://www.w3.org/2000/svg" xmlns:xlink="http://www.w3.org/1999/xlink" width="500" zoomAndPan="magnify" viewBox="0 0 375 374.999991" height="500" preserveAspectRatio="xMidYMid meet" version="1.0"><defs><g/><clipPath id="f0990cc8d6"><path d="M 66 141.09375 L 86 141.09375 L 86 146 L 66 146 Z M 66 141.09375 " clip-rule="nonzero"/></clipPath><clipPath id="0315b597e2"><path d="M 66 141.09375 L 86 141.09375 L 86 147 L 66 147 Z M 66 141.09375 " clip-rule="nonzero"/></clipPath><clipPath id="c74bd61fed"><path d="M 156 141.09375 L 176 141.09375 L 176 146 L 156 146 Z M 156 141.09375 " clip-rule="nonzero"/></clipPath><clipPath id="45bc7b8cf6"><path d="M 156 141.09375 L 176 141.09375 L 176 147 L 156 147 Z M 156 141.09375 " clip-rule="nonzero"/></clipPath></defs><g clip-path="url(#f0990cc8d6)"><path fill="#f4f6fc" d="M 85.332031 145.382812 C 85.332031 145.382812 85.332031 144.019531 85.332031 143.679688 C 85.332031 143.335938 84.359375 142.808594 82.519531 142.339844 C 79.164062 141.484375 68.949219 141.628906 67.011719 144.390625 C 66.929688 144.511719 66.90625 145.089844 66.921875 145.746094 C 68.183594 145.4375 70.277344 145.183594 73.117188 145.011719 C 77.292969 144.761719 81.023438 145.074219 83.460938 145.195312 C 84.328125 145.238281 84.878906 145.273438 85.339844 145.375 Z M 85.332031 145.382812 " fill-opacity="1" fill-rule="evenodd"/></g><g clip-path="url(#0315b597e2)"><path fill="#f4f6fc" d="M 84.765625 144.71875 L 84.765625 143.671875 C 84.765625 143.621094 84.605469 143.671875 84.308594 143.535156 C 83.867188 143.324219 83.21875 143.101562 82.378906 142.890625 C 80.503906 142.410156 76.402344 142.253906 72.890625 142.726562 C 70.375 143.058594 68.195312 143.695312 67.476562 144.71875 C 67.449219 144.761719 67.503906 144.761719 67.496094 144.898438 L 67.492188 145.046875 C 68.039062 144.949219 68.671875 144.847656 69.40625 144.761719 C 70.445312 144.640625 71.679688 144.535156 73.082031 144.449219 C 76.621094 144.234375 79.847656 144.425781 82.234375 144.5625 C 83.074219 144.613281 83.9375 144.640625 84.765625 144.71875 Z M 85.902344 143.671875 L 85.890625 145.488281 C 85.824219 145.792969 85.527344 145.996094 85.21875 145.929688 C 84.195312 145.78125 83.203125 145.753906 82.171875 145.695312 C 79.8125 145.558594 76.621094 145.375 73.144531 145.582031 C 71.75 145.660156 70.539062 145.773438 69.535156 145.886719 C 68.515625 146.007812 67.683594 146.144531 67.070312 146.292969 L 66.921875 146.316406 C 66.609375 146.316406 66.34375 146.066406 66.34375 145.757812 L 66.359375 144.839844 C 66.378906 144.5 66.4375 144.222656 66.542969 144.0625 C 67.476562 142.738281 69.949219 141.96875 72.742188 141.597656 C 76.386719 141.113281 80.675781 141.285156 82.65625 141.785156 C 83.566406 142.019531 84.292969 142.269531 84.800781 142.511719 C 85.527344 142.851562 85.902344 143.273438 85.902344 143.679688 Z M 85.902344 143.671875 " fill-opacity="1" fill-rule="nonzero"/></g><path fill="#f4f6fc" d="M 74.882812 151.203125 C 79.820312 151.203125 84.292969 153.203125 87.527344 156.445312 C 90.761719 159.675781 92.769531 164.152344 92.769531 169.085938 C 92.769531 174.023438 90.769531 178.496094 87.527344 181.730469 C 84.292969 184.964844 79.820312 186.964844 74.882812 186.964844 C 69.949219 186.964844 65.476562 184.964844 62.242188 181.730469 L 62.210938 181.703125 C 58.992188 178.46875 57 174 57 169.085938 C 57 164.152344 59 159.675781 62.242188 156.445312 C 65.480469 153.203125 69.957031 151.203125 74.882812 151.203125 Z M 86.722656 157.242188 C 83.695312 154.214844 79.507812 152.339844 74.882812 152.339844 C 70.261719 152.339844 66.074219 154.214844 63.046875 157.242188 C 60.011719 160.269531 58.144531 164.457031 58.144531 169.085938 C 58.144531 173.703125 60.011719 177.875 63.023438 180.902344 L 63.046875 180.925781 C 66.074219 183.953125 70.261719 185.824219 74.882812 185.824219 C 79.507812 185.824219 83.695312 183.953125 86.722656 180.925781 C 89.75 177.898438 91.625 173.710938 91.625 169.085938 C 91.625 164.464844 89.75 160.277344 86.722656 157.242188 Z M 86.722656 157.242188 " fill-opacity="1" fill-rule="nonzero"/><path fill="#f4f6fc" d="M 112.046875 189.863281 C 111.824219 193.492188 110.078125 196.753906 107.421875 199.097656 C 104.78125 201.425781 101.226562 202.863281 97.355469 202.863281 C 93.484375 202.863281 90 201.425781 87.472656 199.082031 C 84.929688 196.730469 83.347656 193.460938 83.3125 189.835938 L 83.3125 189.800781 C 83.539062 185.941406 85.285156 182.464844 87.933594 179.964844 C 90.582031 177.472656 94.136719 175.933594 98.019531 175.933594 C 101.902344 175.933594 105.390625 177.476562 107.914062 179.976562 C 110.441406 182.484375 112.007812 185.96875 112.039062 189.835938 L 112.039062 189.871094 Z M 106.667969 198.25 C 109.101562 196.097656 110.699219 193.113281 110.90625 189.808594 C 110.871094 186.269531 109.4375 183.082031 107.117188 180.78125 C 104.800781 178.488281 101.59375 177.070312 98.027344 177.070312 C 94.453125 177.070312 91.167969 178.488281 88.722656 180.789062 C 86.273438 183.097656 84.664062 186.304688 84.457031 189.859375 C 84.5 193.148438 85.9375 196.113281 88.246094 198.253906 C 90.570312 200.398438 93.78125 201.722656 97.363281 201.722656 C 100.949219 201.722656 104.238281 200.398438 106.675781 198.25 Z M 106.667969 198.25 " fill-opacity="1" fill-rule="nonzero"/><path fill="#f4f6fc" d="M 97.265625 179.445312 C 99.9375 179.445312 102.359375 180.527344 104.109375 182.277344 C 105.863281 184.03125 106.953125 186.453125 106.953125 189.125 C 106.953125 191.796875 105.871094 194.21875 104.109375 195.96875 C 102.359375 197.722656 99.9375 198.8125 97.265625 198.8125 C 94.59375 198.8125 92.171875 197.730469 90.417969 195.976562 C 88.667969 194.222656 87.578125 191.800781 87.578125 189.132812 C 87.578125 186.460938 88.660156 184.039062 90.417969 182.285156 C 92.171875 180.535156 94.59375 179.449219 97.265625 179.449219 Z M 97.265625 179.445312 " fill-opacity="1" fill-rule="nonzero"/><path fill="#f4f6fc" d="M 120.976562 199.382812 L 133.378906 199.382812 C 132.460938 198.292969 131.691406 197.058594 131.113281 195.734375 C 130.386719 194.066406 129.960938 192.230469 129.917969 190.3125 L 129.910156 189.941406 C 129.910156 186.117188 131.414062 182.671875 133.863281 180.148438 C 136.320312 177.628906 139.730469 176.039062 143.550781 175.9375 L 143.921875 175.933594 C 147.894531 175.933594 151.519531 177.542969 154.191406 180.136719 C 156.855469 182.734375 158.558594 186.316406 158.65625 190.285156 C 158.707031 192.320312 158.332031 194.273438 157.609375 196.035156 C 156.976562 197.578125 156.070312 198.980469 154.960938 200.1875 C 155.183594 200.285156 155.382812 200.394531 155.558594 200.507812 C 155.945312 200.757812 156.230469 201.027344 156.492188 201.304688 C 156.949219 201.789062 157.296875 202.871094 157.910156 204.789062 C 158.800781 207.558594 160.273438 212.167969 163.386719 219.210938 C 165.921875 224.960938 168.792969 228.4375 171.707031 230.378906 C 174.578125 232.304688 177.5 232.753906 180.183594 232.453125 C 182.875 232.152344 185.8125 231.242188 188.234375 228.855469 C 190.675781 226.449219 192.621094 222.523438 193.324219 216.199219 C 194.691406 203.8125 190.007812 184.773438 186.445312 170.285156 L 186.054688 168.6875 C 182.476562 154.144531 177.304688 148.785156 177.292969 148.773438 C 177.226562 148.699219 177.175781 148.621094 177.148438 148.539062 C 177.09375 148.410156 176.472656 147.046875 175.925781 146.648438 L 175.902344 146.636719 C 175.609375 146.441406 174.863281 146.242188 173.703125 146.058594 C 172.492188 145.867188 170.84375 145.703125 168.816406 145.582031 C 165.339844 145.375 162.148438 145.558594 159.789062 145.695312 L 158.535156 145.765625 C 156.414062 145.875 156.3125 145.9375 154.375 147.078125 L 153.871094 147.367188 C 153.777344 147.417969 153.6875 147.449219 153.585938 147.449219 L 88.367188 147.449219 C 88.246094 147.449219 88.132812 147.410156 88.039062 147.347656 L 87.578125 147.078125 C 85.640625 145.9375 85.535156 145.875 83.417969 145.765625 L 82.164062 145.695312 C 79.804688 145.558594 76.617188 145.375 73.140625 145.582031 C 71.109375 145.703125 69.464844 145.875 68.253906 146.058594 C 67.054688 146.25 66.300781 146.449219 66.03125 146.65625 C 65.453125 147.078125 64.804688 148.550781 64.804688 148.550781 C 64.777344 148.636719 64.726562 148.714844 64.671875 148.773438 C 64.65625 148.785156 59.492188 154.144531 55.914062 168.6875 L 55.523438 170.285156 C 51.960938 184.765625 47.277344 203.804688 48.644531 216.199219 C 49.339844 222.523438 51.292969 226.449219 53.734375 228.855469 C 56.15625 231.234375 59.09375 232.148438 61.785156 232.453125 C 64.46875 232.753906 67.390625 232.304688 70.253906 230.378906 C 73.167969 228.429688 76.039062 224.953125 78.574219 219.210938 C 81.6875 212.167969 83.160156 207.558594 84.050781 204.789062 C 84.664062 202.871094 85.011719 201.789062 85.46875 201.304688 L 85.492188 201.28125 C 85.746094 201.011719 86.03125 200.742188 86.394531 200.507812 C 86.574219 200.394531 86.765625 200.285156 86.992188 200.1875 C 85.882812 198.980469 84.976562 197.578125 84.34375 196.035156 C 83.625 194.273438 83.238281 192.320312 83.296875 190.285156 C 83.394531 186.316406 85.097656 182.726562 87.761719 180.136719 C 90.425781 177.542969 94.058594 175.933594 98.027344 175.933594 L 98.398438 175.9375 C 102.222656 176.039062 105.632812 177.628906 108.089844 180.148438 C 110.542969 182.671875 112.050781 186.117188 112.050781 189.9375 L 112.046875 190.304688 C 111.996094 192.230469 111.566406 194.066406 110.847656 195.734375 L 110.835938 195.761719 C 110.265625 197.074219 109.496094 198.296875 108.582031 199.382812 L 120.984375 199.382812 Z M 134.675781 200.519531 L 107.28125 200.519531 C 107.136719 200.519531 106.988281 200.464844 106.878906 200.351562 C 106.660156 200.128906 106.660156 199.765625 106.878906 199.546875 C 108.097656 198.335938 109.097656 196.894531 109.785156 195.300781 L 109.792969 195.277344 C 110.464844 193.738281 110.855469 192.042969 110.898438 190.285156 L 110.898438 189.9375 C 110.898438 186.425781 109.515625 183.246094 107.265625 180.941406 C 105.015625 178.632812 101.875 177.164062 98.367188 177.078125 L 98.019531 177.078125 C 94.359375 177.078125 91.011719 178.5625 88.546875 180.953125 C 86.089844 183.347656 84.515625 186.660156 84.421875 190.3125 C 84.378906 192.195312 84.722656 193.988281 85.382812 195.597656 C 86.074219 197.28125 87.109375 198.78125 88.402344 200.007812 C 88.476562 200.078125 88.53125 200.164062 88.558594 200.273438 C 88.640625 200.578125 88.460938 200.882812 88.160156 200.96875 C 87.65625 201.105469 87.292969 201.277344 87 201.460938 C 86.730469 201.640625 86.507812 201.84375 86.300781 202.058594 L 86.28125 202.085938 C 85.996094 202.386719 85.675781 203.382812 85.113281 205.144531 C 84.214844 207.949219 82.71875 212.617188 79.601562 219.683594 C 76.972656 225.636719 73.953125 229.269531 70.867188 231.335938 C 67.738281 233.429688 64.554688 233.914062 61.636719 233.59375 C 58.730469 233.273438 55.550781 232.273438 52.910156 229.683594 C 50.296875 227.109375 48.222656 222.957031 47.488281 216.332031 C 46.101562 203.742188 50.808594 184.59375 54.398438 170.027344 L 54.789062 168.433594 C 58.210938 154.511719 63.160156 148.738281 63.785156 148.054688 C 64.007812 147.589844 64.699219 146.222656 65.355469 145.746094 C 65.773438 145.4375 66.691406 145.167969 68.0625 144.949219 C 69.320312 144.746094 71.003906 144.578125 73.0625 144.457031 C 76.601562 144.242188 79.828125 144.433594 82.214844 144.570312 L 83.46875 144.640625 C 85.859375 144.761719 85.976562 144.832031 88.140625 146.101562 L 88.511719 146.316406 L 153.421875 146.316406 L 153.792969 146.101562 C 155.957031 144.832031 156.070312 144.761719 158.457031 144.640625 L 159.71875 144.570312 C 162.105469 144.433594 165.332031 144.242188 168.871094 144.457031 C 170.929688 144.578125 172.617188 144.753906 173.871094 144.949219 C 175.199219 145.160156 176.101562 145.425781 176.542969 145.714844 L 176.585938 145.746094 C 177.242188 146.222656 177.933594 147.589844 178.152344 148.054688 C 178.773438 148.738281 183.730469 154.511719 187.148438 168.433594 L 187.542969 170.027344 C 191.125 184.59375 195.839844 203.742188 194.449219 216.332031 C 193.71875 222.957031 191.644531 227.105469 189.03125 229.683594 C 186.394531 232.28125 183.21875 233.273438 180.304688 233.59375 C 177.382812 233.914062 174.199219 233.429688 171.074219 231.335938 C 167.988281 229.269531 164.976562 225.636719 162.339844 219.683594 C 159.21875 212.617188 157.726562 207.949219 156.828125 205.144531 C 156.265625 203.382812 155.945312 202.386719 155.660156 202.085938 C 155.445312 201.859375 155.21875 201.640625 154.941406 201.460938 C 154.65625 201.277344 154.292969 201.113281 153.800781 200.976562 C 153.699219 200.957031 153.601562 200.898438 153.523438 200.8125 C 153.308594 200.585938 153.316406 200.230469 153.535156 200.007812 C 154.832031 198.78125 155.871094 197.28125 156.554688 195.597656 C 157.21875 193.980469 157.566406 192.195312 157.519531 190.3125 C 157.425781 186.660156 155.851562 183.347656 153.394531 180.953125 C 150.9375 178.5625 147.582031 177.078125 143.921875 177.078125 L 143.578125 177.078125 C 140.058594 177.164062 136.925781 178.632812 134.675781 180.941406 C 132.425781 183.253906 131.042969 186.425781 131.042969 189.9375 L 131.042969 190.277344 C 131.085938 192.042969 131.476562 193.738281 132.144531 195.277344 C 132.835938 196.867188 133.820312 198.304688 135.03125 199.515625 C 135.152344 199.625 135.230469 199.773438 135.230469 199.949219 C 135.230469 200.265625 134.972656 200.519531 134.660156 200.519531 Z M 134.675781 200.519531 " fill-opacity="1" fill-rule="nonzero"/><path fill="#f4f6fc" d="M 120.976562 199.949219 L 128.300781 199.949219 C 127.945312 198.789062 126.738281 198.613281 125.855469 198.613281 L 116.113281 198.613281 C 115.222656 198.613281 114.023438 198.789062 113.667969 199.949219 L 120.992188 199.949219 Z M 120.976562 199.949219 " fill-opacity="1" fill-rule="evenodd"/><path fill="#f4f6fc" d="M 128.300781 200.519531 L 113.660156 200.519531 L 113.492188 200.492188 C 113.191406 200.398438 113.019531 200.078125 113.113281 199.78125 C 113.347656 199.011719 113.867188 198.5625 114.46875 198.320312 C 115.007812 198.09375 115.605469 198.042969 116.105469 198.042969 L 125.847656 198.042969 C 126.347656 198.042969 126.945312 198.097656 127.488281 198.320312 C 128.078125 198.5625 128.585938 198.996094 128.828125 199.75 L 128.863281 199.949219 C 128.863281 200.265625 128.605469 200.519531 128.292969 200.519531 Z M 128.300781 200.519531 " fill-opacity="1" fill-rule="nonzero"/><g clip-path="url(#c74bd61fed)"><path fill="#f4f6fc" d="M 156.628906 145.382812 C 156.628906 145.382812 156.628906 144.019531 156.628906 143.679688 C 156.628906 143.335938 157.605469 142.808594 159.441406 142.339844 C 162.796875 141.484375 173.011719 141.628906 174.949219 144.390625 C 175.035156 144.511719 175.054688 145.089844 175.039062 145.746094 C 173.78125 145.4375 171.6875 145.183594 168.84375 145.011719 C 164.667969 144.761719 160.9375 145.074219 158.5 145.195312 C 157.632812 145.238281 157.082031 145.273438 156.621094 145.375 Z M 156.628906 145.382812 " fill-opacity="1" fill-rule="evenodd"/></g><g clip-path="url(#45bc7b8cf6)"><path fill="#f4f6fc" d="M 156.058594 145.382812 L 156.058594 143.679688 C 156.058594 143.273438 156.433594 142.859375 157.160156 142.511719 C 157.660156 142.277344 158.386719 142.019531 159.304688 141.785156 C 161.285156 141.285156 165.566406 141.113281 169.222656 141.597656 C 172.011719 141.96875 174.484375 142.738281 175.417969 144.0625 C 175.53125 144.222656 175.589844 144.5 175.609375 144.839844 L 175.625 145.753906 C 175.625 146.066406 175.359375 146.316406 175.046875 146.316406 L 174.898438 146.292969 C 174.285156 146.152344 173.453125 146.007812 172.433594 145.886719 C 171.429688 145.773438 170.21875 145.660156 168.824219 145.582031 C 165.347656 145.375 162.15625 145.558594 159.796875 145.695312 C 158.695312 145.757812 157.71875 145.832031 156.636719 145.945312 C 156.320312 145.945312 156.066406 145.6875 156.066406 145.375 Z M 157.199219 143.679688 L 157.199219 144.726562 C 158.03125 144.648438 158.894531 144.613281 159.726562 144.570312 C 162.113281 144.433594 165.339844 144.242188 168.878906 144.457031 C 170.28125 144.542969 171.507812 144.648438 172.554688 144.769531 C 173.289062 144.855469 173.929688 144.949219 174.472656 145.054688 L 174.464844 144.90625 C 174.457031 144.769531 174.507812 144.761719 174.484375 144.726562 C 173.765625 143.695312 171.585938 143.058594 169.066406 142.726562 C 165.554688 142.261719 161.449219 142.410156 159.578125 142.890625 C 158.734375 143.101562 158.089844 143.332031 157.644531 143.535156 C 157.347656 143.679688 157.191406 143.621094 157.191406 143.671875 Z M 157.199219 143.679688 " fill-opacity="1" fill-rule="nonzero"/></g><path fill="#f4f6fc" d="M 167.070312 152.339844 C 162.445312 152.339844 158.257812 154.214844 155.230469 157.242188 C 152.199219 160.269531 150.332031 164.457031 150.332031 169.085938 C 150.332031 173.71875 152.203125 177.898438 155.230469 180.925781 C 158.257812 183.953125 162.445312 185.824219 167.078125 185.824219 C 171.699219 185.824219 175.886719 183.953125 178.914062 180.925781 C 181.941406 177.898438 183.816406 173.710938 183.816406 169.085938 C 183.816406 164.464844 181.941406 160.277344 178.914062 157.25 L 178.894531 157.226562 C 175.867188 154.214844 171.691406 152.347656 167.078125 152.347656 Z M 154.425781 156.445312 C 157.667969 153.203125 162.140625 151.203125 167.070312 151.203125 C 171.992188 151.203125 176.449219 153.1875 179.683594 156.414062 L 179.714844 156.445312 C 182.945312 159.675781 184.957031 164.152344 184.957031 169.085938 C 184.957031 174.023438 182.953125 178.496094 179.714844 181.730469 C 176.480469 184.964844 172.007812 186.964844 167.070312 186.964844 C 162.132812 186.964844 157.660156 184.964844 154.425781 181.730469 C 151.1875 178.488281 149.183594 174.015625 149.183594 169.085938 C 149.183594 164.152344 151.1875 159.683594 154.425781 156.445312 Z M 154.425781 156.445312 " fill-opacity="1" fill-rule="nonzero"/><path fill="#f4f6fc" d="M 98.078125 175.933594 L 98.398438 175.9375 C 102.222656 176.039062 105.632812 177.628906 108.089844 180.148438 C 110.542969 182.671875 112.050781 186.117188 112.050781 189.9375 L 112.046875 190.304688 C 111.945312 194.28125 110.242188 197.871094 107.578125 200.464844 C 104.914062 203.054688 101.28125 204.667969 97.316406 204.667969 L 96.945312 204.660156 C 93.121094 204.558594 89.707031 202.972656 87.25 200.449219 C 84.800781 197.929688 83.289062 194.480469 83.289062 190.664062 L 83.296875 190.292969 C 83.394531 186.324219 85.097656 182.734375 87.761719 180.136719 C 90.425781 177.542969 94.058594 175.933594 98.027344 175.933594 Z M 98.375 177.070312 L 98.027344 177.070312 C 94.367188 177.070312 91.019531 178.554688 88.554688 180.945312 C 86.097656 183.339844 84.523438 186.652344 84.429688 190.304688 L 84.429688 190.65625 C 84.429688 194.167969 85.8125 197.34375 88.0625 199.652344 C 90.3125 201.960938 93.453125 203.425781 96.957031 203.511719 L 97.308594 203.511719 C 100.960938 203.511719 104.316406 202.03125 106.773438 199.636719 C 109.230469 197.246094 110.804688 193.933594 110.898438 190.277344 L 110.898438 189.929688 C 110.898438 186.417969 109.515625 183.242188 107.265625 180.933594 C 105.015625 178.625 101.875 177.15625 98.367188 177.070312 Z M 98.375 177.070312 " fill-opacity="1" fill-rule="nonzero"/><path fill="#f4f6fc" d="M 143.898438 177.070312 L 143.585938 177.078125 C 140.074219 177.164062 136.941406 178.632812 134.6875 180.941406 C 132.4375 183.253906 131.054688 186.425781 131.054688 189.9375 L 131.054688 190.285156 C 131.148438 193.9375 132.722656 197.25 135.179688 199.644531 C 137.636719 202.039062 140.992188 203.519531 144.648438 203.519531 L 144.996094 203.519531 C 148.507812 203.433594 151.640625 201.964844 153.890625 199.660156 C 156.144531 197.34375 157.523438 194.175781 157.523438 190.664062 L 157.523438 190.3125 C 157.433594 186.660156 155.859375 183.347656 153.402344 180.953125 C 150.945312 178.5625 147.589844 177.078125 143.925781 177.078125 L 143.890625 177.078125 Z M 143.558594 175.9375 L 143.925781 175.933594 C 147.894531 175.933594 151.519531 177.542969 154.191406 180.136719 C 156.855469 182.734375 158.558594 186.316406 158.65625 190.285156 L 158.664062 190.664062 C 158.664062 194.480469 157.160156 197.933594 154.703125 200.449219 C 152.246094 202.972656 148.835938 204.558594 145.015625 204.660156 L 144.640625 204.667969 C 140.679688 204.667969 137.046875 203.054688 134.375 200.464844 C 131.710938 197.863281 130.007812 194.28125 129.910156 190.3125 L 129.902344 189.9375 C 129.902344 186.117188 131.40625 182.664062 133.863281 180.148438 C 136.320312 177.628906 139.730469 176.039062 143.558594 175.9375 Z M 143.558594 175.9375 " fill-opacity="1" fill-rule="nonzero"/><path fill="#f4f6fc" d="M 129.910156 189.863281 C 129.894531 189.550781 130.128906 189.28125 130.445312 189.265625 C 130.757812 189.253906 131.027344 189.488281 131.042969 189.800781 C 131.242188 193.113281 132.84375 196.097656 135.28125 198.25 C 137.714844 200.398438 141.007812 201.722656 144.589844 201.722656 C 148.171875 201.722656 151.386719 200.398438 153.707031 198.253906 C 156.015625 196.117188 157.453125 193.148438 157.496094 189.859375 C 157.28125 186.304688 155.679688 183.097656 153.230469 180.789062 C 150.785156 178.488281 147.503906 177.070312 143.925781 177.070312 C 143.613281 177.070312 143.359375 176.816406 143.359375 176.503906 C 143.359375 176.1875 143.613281 175.933594 143.925781 175.933594 C 147.800781 175.933594 151.363281 177.472656 154.011719 179.964844 C 156.671875 182.464844 158.410156 185.941406 158.636719 189.800781 L 158.636719 189.835938 C 158.601562 193.460938 157.027344 196.730469 154.476562 199.082031 C 151.949219 201.417969 148.464844 202.863281 144.589844 202.863281 C 140.722656 202.863281 137.167969 201.425781 134.523438 199.097656 C 131.867188 196.753906 130.125 193.492188 129.902344 189.863281 Z M 129.910156 189.863281 " fill-opacity="1" fill-rule="nonzero"/><path fill="#f4f6fc" d="M 137.851562 182.277344 C 139.605469 180.527344 142.027344 179.445312 144.695312 179.445312 C 147.367188 179.445312 149.789062 180.527344 151.542969 182.277344 C 153.292969 184.03125 154.382812 186.453125 154.382812 189.125 C 154.382812 191.796875 153.300781 194.21875 151.542969 195.96875 C 149.789062 197.722656 147.367188 198.804688 144.695312 198.804688 C 142.027344 198.804688 139.605469 197.722656 137.851562 195.96875 C 136.097656 194.21875 135.015625 191.796875 135.015625 189.125 C 135.015625 186.453125 136.097656 184.03125 137.859375 182.277344 Z M 137.851562 182.277344 " fill-opacity="1" fill-rule="nonzero"/><path fill="#f4f6fc" d="M 98.367188 145.980469 L 143.585938 145.980469 C 144.753906 145.980469 145.699219 146.933594 145.699219 148.09375 L 145.699219 170.910156 C 145.699219 172.855469 144.113281 174.445312 142.167969 174.445312 L 99.773438 174.445312 C 97.828125 174.445312 96.238281 172.855469 96.238281 170.910156 L 96.238281 148.09375 C 96.238281 146.925781 97.195312 145.980469 98.355469 145.980469 Z M 98.367188 145.980469 " fill-opacity="1" fill-rule="evenodd"/><path fill="#f4f6fc" d="M 98.367188 145.410156 L 143.585938 145.410156 C 144.320312 145.410156 145.003906 145.714844 145.480469 146.199219 C 145.964844 146.683594 146.269531 147.363281 146.269531 148.09375 L 146.269531 170.910156 C 146.269531 172.035156 145.808594 173.0625 145.066406 173.808594 C 144.328125 174.550781 143.300781 175.011719 142.167969 175.011719 L 99.773438 175.011719 C 98.648438 175.011719 97.613281 174.550781 96.875 173.808594 C 96.132812 173.070312 95.667969 172.042969 95.667969 170.910156 L 95.667969 148.09375 C 95.667969 147.355469 95.976562 146.679688 96.460938 146.199219 C 96.945312 145.714844 97.621094 145.410156 98.355469 145.410156 Z M 98.367188 145.410156 " fill-opacity="1" fill-rule="nonzero"/><path fill="#f4f6fc" d="M 90.988281 149.90625 C 91.332031 149.90625 91.664062 150.019531 91.980469 150.242188 C 92.296875 150.46875 92.574219 150.792969 92.816406 151.207031 C 93.058594 151.625 93.246094 152.109375 93.378906 152.652344 C 93.507812 153.199219 93.574219 153.765625 93.574219 154.355469 C 93.574219 154.945312 93.507812 155.515625 93.378906 156.058594 C 93.246094 156.605469 93.058594 157.085938 92.816406 157.503906 C 92.574219 157.921875 92.296875 158.242188 91.980469 158.46875 C 91.664062 158.695312 91.332031 158.808594 90.988281 158.808594 C 90.648438 158.808594 90.316406 158.695312 90 158.46875 C 89.683594 158.242188 89.402344 157.921875 89.160156 157.503906 C 88.917969 157.085938 88.730469 156.605469 88.601562 156.058594 C 88.46875 155.515625 88.402344 154.945312 88.402344 154.355469 C 88.402344 153.765625 88.46875 153.199219 88.601562 152.652344 C 88.730469 152.109375 88.917969 151.625 89.160156 151.207031 C 89.402344 150.792969 89.683594 150.46875 90 150.242188 C 90.316406 150.019531 90.648438 149.90625 90.988281 149.90625 Z M 90.988281 149.90625 " fill-opacity="1" fill-rule="evenodd"/><path fill="#f4f6fc" d="M 150.972656 149.90625 C 151.316406 149.90625 151.644531 150.019531 151.960938 150.242188 C 152.277344 150.46875 152.558594 150.792969 152.800781 151.207031 C 153.042969 151.625 153.230469 152.109375 153.359375 152.652344 C 153.492188 153.199219 153.558594 153.765625 153.558594 154.355469 C 153.558594 154.945312 153.492188 155.515625 153.359375 156.058594 C 153.230469 156.605469 153.042969 157.085938 152.800781 157.503906 C 152.558594 157.921875 152.277344 158.242188 151.960938 158.46875 C 151.644531 158.695312 151.316406 158.808594 150.972656 158.808594 C 150.628906 158.808594 150.300781 158.695312 149.984375 158.46875 C 149.664062 158.242188 149.386719 157.921875 149.144531 157.503906 C 148.902344 157.085938 148.714844 156.605469 148.582031 156.058594 C 148.453125 155.515625 148.386719 154.945312 148.386719 154.355469 C 148.386719 153.765625 148.453125 153.199219 148.582031 152.652344 C 148.714844 152.109375 148.902344 151.625 149.144531 151.207031 C 149.386719 150.792969 149.664062 150.46875 149.984375 150.242188 C 150.300781 150.019531 150.628906 149.90625 150.972656 149.90625 Z M 150.972656 149.90625 " fill-opacity="1" fill-rule="evenodd"/><path fill="#f4f6fc" d="M 125.042969 189.679688 C 125.042969 189.945312 125.019531 190.210938 124.964844 190.472656 C 124.914062 190.734375 124.835938 190.988281 124.734375 191.234375 C 124.632812 191.484375 124.507812 191.71875 124.359375 191.9375 C 124.210938 192.160156 124.042969 192.367188 123.851562 192.554688 C 123.664062 192.746094 123.457031 192.914062 123.238281 193.0625 C 123.015625 193.210938 122.78125 193.335938 122.535156 193.4375 C 122.285156 193.539062 122.03125 193.617188 121.769531 193.667969 C 121.507812 193.722656 121.246094 193.746094 120.976562 193.746094 C 120.710938 193.746094 120.445312 193.722656 120.183594 193.667969 C 119.921875 193.617188 119.667969 193.539062 119.421875 193.4375 C 119.175781 193.335938 118.941406 193.210938 118.71875 193.0625 C 118.496094 192.914062 118.289062 192.746094 118.101562 192.554688 C 117.914062 192.367188 117.742188 192.160156 117.59375 191.9375 C 117.445312 191.71875 117.320312 191.484375 117.21875 191.234375 C 117.117188 190.988281 117.039062 190.734375 116.988281 190.472656 C 116.9375 190.210938 116.910156 189.945312 116.910156 189.679688 C 116.910156 189.414062 116.9375 189.148438 116.988281 188.886719 C 117.039062 188.625 117.117188 188.371094 117.21875 188.125 C 117.320312 187.875 117.445312 187.640625 117.59375 187.421875 C 117.742188 187.199219 117.914062 186.992188 118.101562 186.804688 C 118.289062 186.613281 118.496094 186.445312 118.71875 186.296875 C 118.941406 186.148438 119.175781 186.023438 119.421875 185.921875 C 119.667969 185.820312 119.921875 185.742188 120.183594 185.691406 C 120.445312 185.636719 120.710938 185.613281 120.976562 185.613281 C 121.246094 185.613281 121.507812 185.636719 121.769531 185.691406 C 122.03125 185.742188 122.285156 185.820312 122.535156 185.921875 C 122.78125 186.023438 123.015625 186.148438 123.238281 186.296875 C 123.457031 186.445312 123.664062 186.613281 123.851562 186.804688 C 124.042969 186.992188 124.210938 187.199219 124.359375 187.421875 C 124.507812 187.640625 124.632812 187.875 124.734375 188.125 C 124.835938 188.371094 124.914062 188.625 124.964844 188.886719 C 125.019531 189.148438 125.042969 189.414062 125.042969 189.679688 Z M 125.042969 189.679688 " fill-opacity="1" fill-rule="nonzero"/><path fill="#f4f6fc" d="M 172.148438 158.28125 C 172.148438 158.613281 172.117188 158.945312 172.050781 159.273438 C 171.984375 159.597656 171.890625 159.917969 171.761719 160.226562 C 171.632812 160.53125 171.476562 160.824219 171.292969 161.101562 C 171.109375 161.378906 170.898438 161.636719 170.660156 161.871094 C 170.425781 162.109375 170.167969 162.320312 169.890625 162.503906 C 169.613281 162.691406 169.320312 162.847656 169.011719 162.972656 C 168.707031 163.101562 168.386719 163.199219 168.0625 163.261719 C 167.734375 163.328125 167.402344 163.359375 167.070312 163.359375 C 166.738281 163.359375 166.40625 163.328125 166.078125 163.261719 C 165.753906 163.199219 165.433594 163.101562 165.125 162.972656 C 164.820312 162.847656 164.527344 162.691406 164.25 162.503906 C 163.972656 162.320312 163.714844 162.109375 163.480469 161.871094 C 163.242188 161.636719 163.03125 161.378906 162.847656 161.101562 C 162.660156 160.824219 162.503906 160.53125 162.378906 160.226562 C 162.25 159.917969 162.152344 159.597656 162.089844 159.273438 C 162.023438 158.945312 161.992188 158.613281 161.992188 158.28125 C 161.992188 157.949219 162.023438 157.617188 162.089844 157.289062 C 162.152344 156.964844 162.25 156.644531 162.378906 156.339844 C 162.503906 156.03125 162.660156 155.738281 162.847656 155.460938 C 163.03125 155.183594 163.242188 154.925781 163.480469 154.691406 C 163.714844 154.453125 163.972656 154.242188 164.25 154.058594 C 164.527344 153.875 164.820312 153.71875 165.125 153.589844 C 165.433594 153.460938 165.753906 153.367188 166.078125 153.300781 C 166.40625 153.234375 166.738281 153.203125 167.070312 153.203125 C 167.402344 153.203125 167.734375 153.234375 168.0625 153.300781 C 168.386719 153.367188 168.707031 153.460938 169.011719 153.589844 C 169.320312 153.71875 169.613281 153.875 169.890625 154.058594 C 170.167969 154.242188 170.425781 154.453125 170.660156 154.691406 C 170.898438 154.925781 171.109375 155.183594 171.292969 155.460938 C 171.476562 155.738281 171.632812 156.03125 171.761719 156.339844 C 171.890625 156.644531 171.984375 156.964844 172.050781 157.289062 C 172.117188 157.617188 172.148438 157.949219 172.148438 158.28125 Z M 172.148438 158.28125 " fill-opacity="1" fill-rule="nonzero"/><path fill="#f4f6fc" d="M 177.878906 164.011719 C 177.546875 164.011719 177.214844 164.046875 176.890625 164.109375 C 176.5625 164.175781 176.246094 164.269531 175.9375 164.398438 C 175.628906 164.527344 175.335938 164.683594 175.058594 164.867188 C 174.78125 165.054688 174.527344 165.261719 174.289062 165.5 C 174.054688 165.734375 173.84375 165.992188 173.660156 166.269531 C 173.472656 166.546875 173.316406 166.835938 173.191406 167.144531 C 173.0625 167.453125 172.964844 167.769531 172.902344 168.097656 C 172.835938 168.425781 172.804688 168.753906 172.804688 169.085938 C 172.804688 169.421875 172.835938 169.75 172.902344 170.078125 C 172.964844 170.40625 173.0625 170.722656 173.191406 171.03125 C 173.316406 171.339844 173.472656 171.628906 173.660156 171.90625 C 173.84375 172.183594 174.054688 172.441406 174.289062 172.675781 C 174.527344 172.914062 174.78125 173.121094 175.058594 173.308594 C 175.335938 173.492188 175.628906 173.648438 175.9375 173.777344 C 176.246094 173.90625 176.5625 174 176.890625 174.066406 C 177.214844 174.128906 177.546875 174.164062 177.878906 174.164062 C 178.210938 174.164062 178.542969 174.128906 178.871094 174.066406 C 179.195312 174 179.511719 173.90625 179.820312 173.777344 C 180.128906 173.648438 180.421875 173.492188 180.699219 173.308594 C 180.976562 173.121094 181.230469 172.914062 181.46875 172.675781 C 181.703125 172.441406 181.914062 172.183594 182.097656 171.90625 C 182.285156 171.628906 182.441406 171.339844 182.566406 171.03125 C 182.695312 170.722656 182.792969 170.40625 182.855469 170.078125 C 182.921875 169.75 182.953125 169.421875 182.953125 169.085938 C 182.953125 168.753906 182.921875 168.425781 182.855469 168.097656 C 182.792969 167.769531 182.695312 167.453125 182.566406 167.144531 C 182.441406 166.835938 182.285156 166.546875 182.097656 166.269531 C 181.914062 165.992188 181.703125 165.734375 181.46875 165.5 C 181.230469 165.261719 180.976562 165.054688 180.699219 164.867188 C 180.421875 164.683594 180.128906 164.527344 179.820312 164.398438 C 179.511719 164.269531 179.195312 164.175781 178.871094 164.109375 C 178.542969 164.046875 178.210938 164.011719 177.878906 164.011719 Z M 177.878906 164.011719 " fill-opacity="1" fill-rule="nonzero"/><path fill="#f4f6fc" d="M 172.148438 179.894531 C 172.148438 180.226562 172.117188 180.554688 172.050781 180.882812 C 171.984375 181.210938 171.890625 181.527344 171.761719 181.835938 C 171.632812 182.144531 171.476562 182.4375 171.292969 182.714844 C 171.109375 182.992188 170.898438 183.246094 170.660156 183.484375 C 170.425781 183.71875 170.167969 183.929688 169.890625 184.117188 C 169.613281 184.300781 169.320312 184.457031 169.011719 184.585938 C 168.707031 184.710938 168.386719 184.808594 168.0625 184.875 C 167.734375 184.9375 167.402344 184.972656 167.070312 184.972656 C 166.738281 184.972656 166.40625 184.9375 166.078125 184.875 C 165.753906 184.808594 165.433594 184.710938 165.125 184.585938 C 164.820312 184.457031 164.527344 184.300781 164.25 184.117188 C 163.972656 183.929688 163.714844 183.71875 163.480469 183.484375 C 163.242188 183.246094 163.03125 182.992188 162.847656 182.714844 C 162.660156 182.4375 162.503906 182.144531 162.378906 181.835938 C 162.25 181.527344 162.152344 181.210938 162.089844 180.882812 C 162.023438 180.554688 161.992188 180.226562 161.992188 179.894531 C 161.992188 179.558594 162.023438 179.230469 162.089844 178.902344 C 162.152344 178.574219 162.25 178.257812 162.378906 177.949219 C 162.503906 177.640625 162.660156 177.347656 162.847656 177.070312 C 163.03125 176.792969 163.242188 176.539062 163.480469 176.300781 C 163.714844 176.066406 163.972656 175.855469 164.25 175.667969 C 164.527344 175.484375 164.820312 175.328125 165.125 175.199219 C 165.433594 175.074219 165.753906 174.976562 166.078125 174.910156 C 166.40625 174.847656 166.738281 174.8125 167.070312 174.8125 C 167.402344 174.8125 167.734375 174.847656 168.0625 174.910156 C 168.386719 174.976562 168.707031 175.074219 169.011719 175.199219 C 169.320312 175.328125 169.613281 175.484375 169.890625 175.667969 C 170.167969 175.855469 170.425781 176.066406 170.660156 176.300781 C 170.898438 176.539062 171.109375 176.792969 171.292969 177.070312 C 171.476562 177.347656 171.632812 177.640625 171.761719 177.949219 C 171.890625 178.257812 171.984375 178.574219 172.050781 178.902344 C 172.117188 179.230469 172.148438 179.558594 172.148438 179.894531 Z M 172.148438 179.894531 " fill-opacity="1" fill-rule="nonzero"/><path fill="#f4f6fc" d="M 156.265625 164.011719 C 155.933594 164.011719 155.601562 164.046875 155.277344 164.109375 C 154.949219 164.175781 154.632812 164.269531 154.324219 164.398438 C 154.015625 164.527344 153.722656 164.683594 153.445312 164.867188 C 153.167969 165.054688 152.914062 165.261719 152.679688 165.5 C 152.441406 165.734375 152.230469 165.992188 152.046875 166.269531 C 151.863281 166.546875 151.707031 166.835938 151.578125 167.144531 C 151.449219 167.453125 151.355469 167.769531 151.289062 168.097656 C 151.222656 168.425781 151.191406 168.753906 151.191406 169.085938 C 151.191406 169.421875 151.222656 169.75 151.289062 170.078125 C 151.355469 170.40625 151.449219 170.722656 151.578125 171.03125 C 151.707031 171.339844 151.863281 171.628906 152.046875 171.90625 C 152.230469 172.183594 152.441406 172.441406 152.679688 172.675781 C 152.914062 172.914062 153.167969 173.121094 153.445312 173.308594 C 153.722656 173.492188 154.015625 173.648438 154.324219 173.777344 C 154.632812 173.90625 154.949219 174 155.277344 174.066406 C 155.601562 174.128906 155.933594 174.164062 156.265625 174.164062 C 156.601562 174.164062 156.929688 174.128906 157.257812 174.066406 C 157.582031 174 157.902344 173.90625 158.207031 173.777344 C 158.515625 173.648438 158.808594 173.492188 159.085938 173.308594 C 159.363281 173.121094 159.621094 172.914062 159.855469 172.675781 C 160.089844 172.441406 160.300781 172.183594 160.488281 171.90625 C 160.671875 171.628906 160.828125 171.339844 160.957031 171.03125 C 161.082031 170.722656 161.179688 170.40625 161.246094 170.078125 C 161.308594 169.75 161.34375 169.421875 161.34375 169.085938 C 161.34375 168.753906 161.308594 168.425781 161.246094 168.097656 C 161.179688 167.769531 161.082031 167.453125 160.957031 167.144531 C 160.828125 166.835938 160.671875 166.546875 160.488281 166.269531 C 160.300781 165.992188 160.089844 165.734375 159.855469 165.5 C 159.621094 165.261719 159.363281 165.054688 159.085938 164.867188 C 158.808594 164.683594 158.515625 164.527344 158.207031 164.398438 C 157.902344 164.269531 157.582031 164.175781 157.257812 164.109375 C 156.929688 164.046875 156.601562 164.011719 156.265625 164.011719 Z M 156.265625 164.011719 " fill-opacity="1" fill-rule="nonzero"/><path fill="#f4f6fc" d="M 48.394531 210.914062 C 48.449219 212.929688 49.648438 216.261719 52.816406 218.871094 C 55.039062 220.699219 58.238281 222.167969 62.695312 222.558594 C 68.222656 223.050781 71.734375 222.808594 74.121094 222.117188 C 76.421875 221.457031 77.65625 220.351562 78.644531 219.097656 C 78.835938 218.855469 79.199219 218.8125 79.441406 219.003906 C 79.648438 219.167969 79.707031 219.445312 79.605469 219.679688 C 76.980469 225.636719 73.957031 229.269531 70.875 231.335938 C 67.746094 233.429688 64.5625 233.914062 61.644531 233.59375 C 58.738281 233.273438 55.558594 232.273438 52.917969 229.683594 C 50.304688 227.109375 48.230469 222.957031 47.496094 216.332031 C 47.402344 215.480469 47.339844 214.597656 47.296875 213.707031 C 47.253906 212.816406 47.238281 211.882812 47.246094 210.925781 C 47.246094 210.613281 47.511719 210.363281 47.824219 210.363281 C 48.128906 210.363281 48.378906 210.613281 48.386719 210.921875 Z M 52.089844 219.746094 C 50.472656 218.414062 49.328125 216.898438 48.558594 215.429688 L 48.636719 216.210938 C 49.335938 222.539062 51.285156 226.460938 53.730469 228.871094 C 56.152344 231.25 59.085938 232.160156 61.777344 232.46875 C 64.464844 232.765625 67.382812 232.316406 70.246094 230.394531 C 72.660156 228.777344 75.054688 226.105469 77.25 221.960938 C 76.496094 222.460938 75.582031 222.886719 74.441406 223.214844 C 71.933594 223.941406 68.289062 224.199219 62.605469 223.691406 C 57.882812 223.273438 54.476562 221.703125 52.097656 219.746094 Z M 52.089844 219.746094 " fill-opacity="1" fill-rule="nonzero"/><path fill="#f4f6fc" d="M 193.398438 215.429688 C 192.628906 216.898438 191.480469 218.414062 189.863281 219.746094 C 187.484375 221.703125 184.078125 223.273438 179.355469 223.691406 C 173.671875 224.199219 170.027344 223.933594 167.519531 223.214844 C 166.371094 222.886719 165.46875 222.460938 164.710938 221.960938 C 166.90625 226.105469 169.292969 228.777344 171.707031 230.394531 C 174.578125 232.316406 177.5 232.765625 180.183594 232.46875 C 182.875 232.167969 185.8125 231.257812 188.234375 228.871094 C 190.675781 226.460938 192.621094 222.539062 193.324219 216.210938 L 193.402344 215.429688 Z M 189.144531 218.871094 C 192.308594 216.261719 193.503906 212.929688 193.566406 210.914062 C 193.574219 210.605469 193.824219 210.359375 194.128906 210.359375 C 194.445312 210.359375 194.699219 210.613281 194.699219 210.921875 C 194.707031 211.875 194.691406 212.808594 194.648438 213.699219 C 194.609375 214.589844 194.542969 215.464844 194.449219 216.320312 C 193.71875 222.957031 191.636719 227.105469 189.03125 229.675781 C 186.394531 232.273438 183.21875 233.265625 180.304688 233.585938 C 177.382812 233.90625 174.199219 233.421875 171.074219 231.328125 C 167.988281 229.261719 164.976562 225.628906 162.339844 219.675781 C 162.242188 219.441406 162.304688 219.160156 162.511719 218.996094 C 162.753906 218.804688 163.117188 218.847656 163.308594 219.089844 C 164.300781 220.34375 165.53125 221.449219 167.832031 222.109375 C 170.210938 222.800781 173.730469 223.042969 179.257812 222.550781 C 183.714844 222.160156 186.914062 220.691406 189.136719 218.863281 Z M 189.144531 218.871094 " fill-opacity="1" fill-rule="nonzero"/><path fill="#f4f6fc" d="M 64.941406 164.597656 L 68.84375 165.042969 C 69.855469 165.15625 70.6875 165.574219 71.378906 166.316406 L 72.882812 167.925781 C 73.488281 168.582031 73.488281 169.585938 72.882812 170.242188 L 71.378906 171.851562 C 70.683594 172.597656 69.855469 173.019531 68.84375 173.125 L 64.941406 173.566406 C 64.214844 173.644531 63.558594 173.4375 63.015625 172.953125 C 62.476562 172.46875 62.191406 171.84375 62.191406 171.109375 L 62.191406 167.050781 C 62.191406 166.324219 62.476562 165.6875 63.015625 165.203125 C 63.558594 164.71875 64.214844 164.507812 64.941406 164.59375 Z M 64.941406 164.597656 " fill-opacity="1" fill-rule="evenodd"/><path fill="#f4f6fc" d="M 79.371094 159.144531 L 78.929688 163.046875 C 78.816406 164.058594 78.394531 164.890625 77.65625 165.582031 L 76.046875 167.085938 C 75.390625 167.691406 74.386719 167.691406 73.730469 167.085938 L 72.121094 165.582031 C 71.371094 164.882812 70.953125 164.058594 70.84375 163.046875 L 70.402344 159.144531 C 70.324219 158.417969 70.53125 157.761719 71.015625 157.21875 C 71.5 156.679688 72.128906 156.394531 72.863281 156.394531 L 76.921875 156.394531 C 77.648438 156.394531 78.273438 156.679688 78.765625 157.21875 C 79.25 157.761719 79.464844 158.417969 79.378906 159.144531 Z M 79.371094 159.144531 " fill-opacity="1" fill-rule="evenodd"/><path fill="#f4f6fc" d="M 84.828125 164.597656 L 80.925781 165.042969 C 79.914062 165.15625 79.078125 165.574219 78.382812 166.316406 L 76.878906 167.925781 C 76.265625 168.582031 76.265625 169.585938 76.878906 170.242188 L 78.382812 171.851562 C 79.078125 172.597656 79.914062 173.019531 80.925781 173.125 L 84.828125 173.566406 C 85.554688 173.644531 86.210938 173.4375 86.75 172.953125 C 87.300781 172.46875 87.578125 171.84375 87.578125 171.109375 L 87.578125 167.050781 C 87.578125 166.324219 87.300781 165.6875 86.75 165.203125 C 86.210938 164.71875 85.554688 164.507812 84.828125 164.59375 Z M 84.828125 164.597656 " fill-opacity="1" fill-rule="evenodd"/><path fill="#f4f6fc" d="M 79.371094 179.03125 L 78.929688 175.128906 C 78.816406 174.117188 78.394531 173.28125 77.65625 172.589844 L 76.046875 171.089844 C 75.390625 170.484375 74.386719 170.484375 73.730469 171.089844 L 72.121094 172.589844 C 71.371094 173.289062 70.953125 174.121094 70.84375 175.128906 L 70.402344 179.03125 C 70.324219 179.757812 70.53125 180.414062 71.015625 180.953125 C 71.5 181.496094 72.128906 181.78125 72.863281 181.78125 L 76.921875 181.78125 C 77.648438 181.78125 78.273438 181.496094 78.765625 180.953125 C 79.25 180.414062 79.464844 179.757812 79.378906 179.03125 Z M 79.371094 179.03125 " fill-opacity="1" fill-rule="evenodd"/><path fill="#f4f6fc" d="M 116.617188 177.871094 C 116.617188 178.101562 116.535156 178.300781 116.371094 178.464844 C 116.207031 178.628906 116.007812 178.710938 115.777344 178.710938 C 115.546875 178.710938 115.347656 178.628906 115.183594 178.464844 C 115.019531 178.300781 114.9375 178.101562 114.9375 177.871094 C 114.9375 177.636719 115.019531 177.441406 115.183594 177.273438 C 115.347656 177.109375 115.546875 177.027344 115.777344 177.027344 C 116.007812 177.027344 116.207031 177.109375 116.371094 177.273438 C 116.535156 177.441406 116.617188 177.636719 116.617188 177.871094 Z M 116.617188 177.871094 " fill-opacity="1" fill-rule="nonzero"/><path fill="#f4f6fc" d="M 119.21875 177.871094 C 119.21875 178.101562 119.136719 178.300781 118.972656 178.464844 C 118.808594 178.628906 118.609375 178.710938 118.378906 178.710938 C 118.144531 178.710938 117.945312 178.628906 117.78125 178.464844 C 117.617188 178.300781 117.535156 178.101562 117.535156 177.871094 C 117.535156 177.636719 117.617188 177.441406 117.78125 177.273438 C 117.945312 177.109375 118.144531 177.027344 118.378906 177.027344 C 118.609375 177.027344 118.808594 177.109375 118.972656 177.273438 C 119.136719 177.441406 119.21875 177.636719 119.21875 177.871094 Z M 119.21875 177.871094 " fill-opacity="1" fill-rule="nonzero"/><path fill="#f4f6fc" d="M 121.816406 177.871094 C 121.816406 178.101562 121.734375 178.300781 121.570312 178.464844 C 121.40625 178.628906 121.210938 178.710938 120.976562 178.710938 C 120.746094 178.710938 120.546875 178.628906 120.382812 178.464844 C 120.21875 178.300781 120.136719 178.101562 120.136719 177.871094 C 120.136719 177.636719 120.21875 177.441406 120.382812 177.273438 C 120.546875 177.109375 120.746094 177.027344 120.976562 177.027344 C 121.210938 177.027344 121.40625 177.109375 121.570312 177.273438 C 121.734375 177.441406 121.816406 177.636719 121.816406 177.871094 Z M 121.816406 177.871094 " fill-opacity="1" fill-rule="nonzero"/><path fill="#f4f6fc" d="M 124.417969 177.871094 C 124.417969 178.101562 124.335938 178.300781 124.171875 178.464844 C 124.007812 178.628906 123.808594 178.710938 123.578125 178.710938 C 123.34375 178.710938 123.148438 178.628906 122.984375 178.464844 C 122.820312 178.300781 122.738281 178.101562 122.738281 177.871094 C 122.738281 177.636719 122.820312 177.441406 122.984375 177.273438 C 123.148438 177.109375 123.34375 177.027344 123.578125 177.027344 C 123.808594 177.027344 124.007812 177.109375 124.171875 177.273438 C 124.335938 177.441406 124.417969 177.636719 124.417969 177.871094 Z M 124.417969 177.871094 " fill-opacity="1" fill-rule="nonzero"/><path fill="#f4f6fc" d="M 127.015625 177.871094 C 127.015625 178.101562 126.933594 178.300781 126.769531 178.464844 C 126.605469 178.628906 126.410156 178.710938 126.175781 178.710938 C 125.945312 178.710938 125.746094 178.628906 125.582031 178.464844 C 125.417969 178.300781 125.335938 178.101562 125.335938 177.871094 C 125.335938 177.636719 125.417969 177.441406 125.582031 177.273438 C 125.746094 177.109375 125.945312 177.027344 126.175781 177.027344 C 126.410156 177.027344 126.605469 177.109375 126.769531 177.273438 C 126.933594 177.441406 127.015625 177.636719 127.015625 177.871094 Z M 127.015625 177.871094 " fill-opacity="1" fill-rule="nonzero"/><path fill="#f4f6fc" d="M 117.921875 179.828125 C 117.921875 180.0625 117.839844 180.257812 117.675781 180.421875 C 117.511719 180.585938 117.3125 180.667969 117.082031 180.667969 C 116.847656 180.667969 116.652344 180.585938 116.488281 180.421875 C 116.324219 180.257812 116.242188 180.0625 116.242188 179.828125 C 116.242188 179.597656 116.324219 179.398438 116.488281 179.234375 C 116.652344 179.070312 116.847656 178.988281 117.082031 178.988281 C 117.3125 178.988281 117.511719 179.070312 117.675781 179.234375 C 117.839844 179.398438 117.921875 179.597656 117.921875 179.828125 Z M 117.921875 179.828125 " fill-opacity="1" fill-rule="nonzero"/><path fill="#f4f6fc" d="M 120.519531 179.828125 C 120.519531 180.0625 120.4375 180.257812 120.273438 180.421875 C 120.109375 180.585938 119.914062 180.667969 119.679688 180.667969 C 119.449219 180.667969 119.25 180.585938 119.085938 180.421875 C 118.921875 180.257812 118.839844 180.0625 118.839844 179.828125 C 118.839844 179.597656 118.921875 179.398438 119.085938 179.234375 C 119.25 179.070312 119.449219 178.988281 119.679688 178.988281 C 119.914062 178.988281 120.109375 179.070312 120.273438 179.234375 C 120.4375 179.398438 120.519531 179.597656 120.519531 179.828125 Z M 120.519531 179.828125 " fill-opacity="1" fill-rule="nonzero"/><path fill="#f4f6fc" d="M 123.121094 179.828125 C 123.121094 180.0625 123.039062 180.257812 122.875 180.421875 C 122.710938 180.585938 122.511719 180.667969 122.28125 180.667969 C 122.046875 180.667969 121.851562 180.585938 121.6875 180.421875 C 121.523438 180.257812 121.441406 180.0625 121.441406 179.828125 C 121.441406 179.597656 121.523438 179.398438 121.6875 179.234375 C 121.851562 179.070312 122.046875 178.988281 122.28125 178.988281 C 122.511719 178.988281 122.710938 179.070312 122.875 179.234375 C 123.039062 179.398438 123.121094 179.597656 123.121094 179.828125 Z M 123.121094 179.828125 " fill-opacity="1" fill-rule="nonzero"/><path fill="#f4f6fc" d="M 125.722656 179.828125 C 125.722656 180.0625 125.640625 180.257812 125.476562 180.421875 C 125.3125 180.585938 125.113281 180.667969 124.878906 180.667969 C 124.648438 180.667969 124.449219 180.585938 124.285156 180.421875 C 124.121094 180.257812 124.039062 180.0625 124.039062 179.828125 C 124.039062 179.597656 124.121094 179.398438 124.285156 179.234375 C 124.449219 179.070312 124.648438 178.988281 124.878906 178.988281 C 125.113281 178.988281 125.3125 179.070312 125.476562 179.234375 C 125.640625 179.398438 125.722656 179.597656 125.722656 179.828125 Z M 125.722656 179.828125 " fill-opacity="1" fill-rule="nonzero"/><path fill="#f4f6fc" d="M 119.21875 181.730469 C 119.21875 181.960938 119.136719 182.160156 118.972656 182.324219 C 118.808594 182.488281 118.609375 182.570312 118.378906 182.570312 C 118.144531 182.570312 117.945312 182.488281 117.78125 182.324219 C 117.617188 182.160156 117.535156 181.960938 117.535156 181.730469 C 117.535156 181.5 117.617188 181.300781 117.78125 181.136719 C 117.945312 180.972656 118.144531 180.890625 118.378906 180.890625 C 118.609375 180.890625 118.808594 180.972656 118.972656 181.136719 C 119.136719 181.300781 119.21875 181.5 119.21875 181.730469 Z M 119.21875 181.730469 " fill-opacity="1" fill-rule="nonzero"/><path fill="#f4f6fc" d="M 121.816406 181.730469 C 121.816406 181.960938 121.734375 182.160156 121.570312 182.324219 C 121.40625 182.488281 121.210938 182.570312 120.976562 182.570312 C 120.746094 182.570312 120.546875 182.488281 120.382812 182.324219 C 120.21875 182.160156 120.136719 181.960938 120.136719 181.730469 C 120.136719 181.5 120.21875 181.300781 120.382812 181.136719 C 120.546875 180.972656 120.746094 180.890625 120.976562 180.890625 C 121.210938 180.890625 121.40625 180.972656 121.570312 181.136719 C 121.734375 181.300781 121.816406 181.5 121.816406 181.730469 Z M 121.816406 181.730469 " fill-opacity="1" fill-rule="nonzero"/><path fill="#f4f6fc" d="M 124.417969 181.730469 C 124.417969 181.960938 124.335938 182.160156 124.171875 182.324219 C 124.007812 182.488281 123.808594 182.570312 123.578125 182.570312 C 123.34375 182.570312 123.148438 182.488281 122.984375 182.324219 C 122.820312 182.160156 122.738281 181.960938 122.738281 181.730469 C 122.738281 181.5 122.820312 181.300781 122.984375 181.136719 C 123.148438 180.972656 123.34375 180.890625 123.578125 180.890625 C 123.808594 180.890625 124.007812 180.972656 124.171875 181.136719 C 124.335938 181.300781 124.417969 181.5 124.417969 181.730469 Z M 124.417969 181.730469 " fill-opacity="1" fill-rule="nonzero"/><g fill="#f4f6fc" fill-opacity="1"><g transform="translate(188.414128, 190.261248)"><g><path d="M 12.078125 0.3125 C 10.023438 0.3125 8.210938 -0.125 6.640625 -1 C 5.066406 -1.875 3.847656 -3.117188 2.984375 -4.734375 C 2.117188 -6.347656 1.6875 -8.207031 1.6875 -10.3125 L 1.6875 -17.6875 C 1.6875 -19.789062 2.117188 -21.648438 2.984375 -23.265625 C 3.847656 -24.878906 5.070312 -26.125 6.65625 -27 C 8.25 -27.875 10.082031 -28.3125 12.15625 -28.3125 L 16.640625 -28.3125 C 18.640625 -28.3125 20.398438 -27.910156 21.921875 -27.109375 C 23.441406 -26.316406 24.617188 -25.1875 25.453125 -23.71875 C 26.296875 -22.25 26.71875 -20.554688 26.71875 -18.640625 L 21.28125 -18.640625 C 21.28125 -20.078125 20.851562 -21.234375 20 -22.109375 C 19.144531 -22.992188 18.023438 -23.4375 16.640625 -23.4375 L 12.15625 -23.4375 C 10.664062 -23.4375 9.46875 -22.882812 8.5625 -21.78125 C 7.65625 -20.675781 7.203125 -19.226562 7.203125 -17.4375 L 7.203125 -10.5625 C 7.203125 -8.769531 7.644531 -7.320312 8.53125 -6.21875 C 9.425781 -5.113281 10.609375 -4.5625 12.078125 -4.5625 L 16.796875 -4.5625 C 18.160156 -4.5625 19.285156 -5.050781 20.171875 -6.03125 C 21.066406 -7.019531 21.515625 -8.25 21.515625 -9.71875 L 21.515625 -10.59375 L 13.765625 -10.59375 L 13.765625 -15.40625 L 26.953125 -15.40625 L 26.953125 -9.71875 C 26.953125 -7.769531 26.523438 -6.035156 25.671875 -4.515625 C 24.828125 -2.992188 23.628906 -1.804688 22.078125 -0.953125 C 20.535156 -0.109375 18.773438 0.3125 16.796875 0.3125 Z M 12.078125 0.3125 "/></g></g></g><g fill="#f4f6fc" fill-opacity="1"><g transform="translate(216.891295, 190.261248)"><g><path d="M 18.875 -6.515625 L 8.40625 -6.515625 L 5.921875 0 L 0.15625 0 L 11.125 -28 L 13.59375 -28 C 15.332031 -28 16.507812 -27.195312 17.125 -25.59375 L 27.078125 0 L 21.3125 0 Z M 9.875 -11.15625 L 17.40625 -11.15625 L 13.6875 -21.234375 L 13.640625 -21.234375 Z M 9.875 -11.15625 "/></g></g></g><g fill="#f4f6fc" fill-opacity="1"><g transform="translate(244.128586, 190.261248)"><g><path d="M 2.484375 -28 L 7.40625 -28 L 16.5625 -11.359375 L 25.515625 -28 L 30.4375 -28 L 30.4375 0 L 25.046875 0 L 25.046875 -17.71875 L 19.15625 -7.078125 C 18.757812 -6.359375 18.351562 -5.84375 17.9375 -5.53125 C 17.519531 -5.226562 17.046875 -5.078125 16.515625 -5.078125 L 15 -5.078125 L 7.875 -17.71875 L 7.875 0 L 2.484375 0 Z M 2.484375 -28 "/></g></g></g><g fill="#f4f6fc" fill-opacity="1"><g transform="translate(277.045317, 190.261248)"><g><path d="M 6.359375 0 C 5.210938 0 4.28125 -0.34375 3.5625 -1.03125 C 2.84375 -1.726562 2.484375 -2.640625 2.484375 -3.765625 L 2.484375 -28 L 23.84375 -28 L 23.84375 -23.203125 L 8 -23.203125 L 8 -16.71875 L 22.640625 -16.71875 L 22.640625 -11.921875 L 8 -11.921875 L 8 -4.796875 L 23.84375 -4.796875 L 23.84375 0 Z M 6.359375 0 "/></g></g></g><g fill="#f4f6fc" fill-opacity="1"><g transform="translate(302.162819, 190.261248)"><g><path d="M 10.875 0.3125 C 7.945312 0.3125 5.65625 -0.503906 4 -2.140625 C 2.34375 -3.773438 1.515625 -6.0625 1.515625 -9 L 6.953125 -9 C 6.953125 -7.613281 7.304688 -6.523438 8.015625 -5.734375 C 8.722656 -4.953125 9.703125 -4.5625 10.953125 -4.5625 L 15.40625 -4.5625 C 16.570312 -4.5625 17.519531 -4.804688 18.25 -5.296875 C 18.988281 -5.796875 19.359375 -6.457031 19.359375 -7.28125 L 19.359375 -8.640625 C 19.359375 -9.941406 18.398438 -10.753906 16.484375 -11.078125 L 9.125 -12.3125 C 6.71875 -12.71875 4.894531 -13.484375 3.65625 -14.609375 C 2.414062 -15.742188 1.796875 -17.191406 1.796875 -18.953125 L 1.796875 -21.203125 C 1.796875 -22.609375 2.175781 -23.851562 2.9375 -24.9375 C 3.695312 -26.019531 4.773438 -26.851562 6.171875 -27.4375 C 7.578125 -28.019531 9.203125 -28.3125 11.046875 -28.3125 L 15.5625 -28.3125 C 17.289062 -28.3125 18.820312 -27.953125 20.15625 -27.234375 C 21.488281 -26.515625 22.519531 -25.507812 23.25 -24.21875 C 23.988281 -22.925781 24.359375 -21.425781 24.359375 -19.71875 L 18.921875 -19.71875 C 18.921875 -20.84375 18.613281 -21.742188 18 -22.421875 C 17.382812 -23.097656 16.570312 -23.4375 15.5625 -23.4375 L 11.046875 -23.4375 C 9.921875 -23.4375 9.015625 -23.195312 8.328125 -22.71875 C 7.648438 -22.238281 7.3125 -21.597656 7.3125 -20.796875 L 7.3125 -19.71875 C 7.3125 -18.382812 8.234375 -17.554688 10.078125 -17.234375 L 17.40625 -15.953125 C 19.832031 -15.523438 21.679688 -14.769531 22.953125 -13.6875 C 24.234375 -12.613281 24.875 -11.222656 24.875 -9.515625 L 24.875 -6.875 C 24.875 -5.46875 24.476562 -4.21875 23.6875 -3.125 C 22.90625 -2.03125 21.804688 -1.179688 20.390625 -0.578125 C 18.984375 0.015625 17.347656 0.3125 15.484375 0.3125 Z M 10.875 0.3125 "/></g></g></g><g fill="#f4f6fc" fill-opacity="1"><g transform="translate(205.563214, 216.950069)"><g><path d="M 5.953125 0.1875 C 5.035156 0.1875 4.222656 -0.00390625 3.515625 -0.390625 C 2.816406 -0.785156 2.269531 -1.335938 1.875 -2.046875 C 1.476562 -2.765625 1.28125 -3.59375 1.28125 -4.53125 L 2.9375 -4.53125 C 2.9375 -3.582031 3.21875 -2.8125 3.78125 -2.21875 C 4.34375 -1.625 5.082031 -1.328125 6 -1.328125 L 8.5625 -1.328125 C 9.457031 -1.328125 10.179688 -1.53125 10.734375 -1.9375 C 11.285156 -2.34375 11.5625 -2.878906 11.5625 -3.546875 L 11.5625 -5.015625 C 11.5625 -5.535156 11.359375 -5.976562 10.953125 -6.34375 C 10.546875 -6.71875 9.992188 -6.957031 9.296875 -7.0625 L 5.15625 -7.75 C 3.988281 -7.945312 3.082031 -8.359375 2.4375 -8.984375 C 1.789062 -9.617188 1.46875 -10.410156 1.46875 -11.359375 L 1.46875 -12.609375 C 1.46875 -13.722656 1.882812 -14.613281 2.71875 -15.28125 C 3.5625 -15.945312 4.671875 -16.28125 6.046875 -16.28125 L 8.640625 -16.28125 C 9.953125 -16.28125 11.003906 -15.882812 11.796875 -15.09375 C 12.597656 -14.3125 13 -13.273438 13 -11.984375 L 11.34375 -11.984375 C 11.34375 -12.828125 11.09375 -13.5 10.59375 -14 C 10.101562 -14.507812 9.453125 -14.765625 8.640625 -14.765625 L 6.046875 -14.765625 C 5.171875 -14.765625 4.472656 -14.566406 3.953125 -14.171875 C 3.429688 -13.785156 3.171875 -13.265625 3.171875 -12.609375 L 3.171875 -11.359375 C 3.171875 -10.828125 3.363281 -10.375 3.75 -10 C 4.144531 -9.632812 4.6875 -9.390625 5.375 -9.265625 L 9.5 -8.5625 C 10.695312 -8.34375 11.625 -7.929688 12.28125 -7.328125 C 12.9375 -6.722656 13.265625 -5.953125 13.265625 -5.015625 L 13.265625 -3.546875 C 13.265625 -2.421875 12.832031 -1.515625 11.96875 -0.828125 C 11.113281 -0.148438 9.992188 0.1875 8.609375 0.1875 Z M 5.953125 0.1875 "/></g></g></g><g fill="#f4f6fc" fill-opacity="1"><g transform="translate(224.924445, 216.950069)"><g><path d="M 5.796875 -14.625 L 0.6875 -14.625 L 0.6875 -16.09375 L 12.609375 -16.09375 L 12.609375 -14.625 L 7.5 -14.625 L 7.5 0 L 5.796875 0 Z M 5.796875 -14.625 "/></g></g></g><g fill="#f4f6fc" fill-opacity="1"><g transform="translate(243.15905, 216.950069)"><g><path d="M 6.71875 0.1875 C 5.738281 0.1875 4.867188 -0.03125 4.109375 -0.46875 C 3.359375 -0.90625 2.773438 -1.523438 2.359375 -2.328125 C 1.953125 -3.140625 1.75 -4.066406 1.75 -5.109375 L 1.75 -16.09375 L 3.453125 -16.09375 L 3.453125 -5.0625 C 3.453125 -3.9375 3.75 -3.03125 4.34375 -2.34375 C 4.945312 -1.664062 5.738281 -1.328125 6.71875 -1.328125 L 9.203125 -1.328125 C 10.179688 -1.328125 10.96875 -1.664062 11.5625 -2.34375 C 12.164062 -3.03125 12.46875 -3.9375 12.46875 -5.0625 L 12.46875 -16.09375 L 14.171875 -16.09375 L 14.171875 -5.109375 C 14.171875 -4.066406 13.960938 -3.140625 13.546875 -2.328125 C 13.128906 -1.523438 12.546875 -0.90625 11.796875 -0.46875 C 11.046875 -0.03125 10.179688 0.1875 9.203125 0.1875 Z M 6.71875 0.1875 "/></g></g></g><g fill="#f4f6fc" fill-opacity="1"><g transform="translate(264.014779, 216.950069)"><g><path d="M 3.328125 0 C 2.859375 0 2.492188 -0.128906 2.234375 -0.390625 C 1.972656 -0.648438 1.84375 -1.019531 1.84375 -1.5 L 1.84375 -16.09375 L 8.515625 -16.09375 C 9.648438 -16.09375 10.644531 -15.875 11.5 -15.4375 C 12.351562 -15 13.019531 -14.378906 13.5 -13.578125 C 13.976562 -12.773438 14.21875 -11.851562 14.21875 -10.8125 L 14.21875 -5.75 C 14.21875 -3.863281 13.738281 -2.429688 12.78125 -1.453125 C 11.832031 -0.484375 10.441406 0 8.609375 0 Z M 8.5625 -1.515625 C 9.863281 -1.515625 10.847656 -1.867188 11.515625 -2.578125 C 12.179688 -3.296875 12.515625 -4.351562 12.515625 -5.75 L 12.515625 -10.8125 C 12.515625 -11.925781 12.140625 -12.832031 11.390625 -13.53125 C 10.648438 -14.226562 9.675781 -14.578125 8.46875 -14.578125 L 3.546875 -14.578125 L 3.546875 -1.515625 Z M 8.5625 -1.515625 "/></g></g></g><g fill="#f4f6fc" fill-opacity="1"><g transform="translate(284.456638, 216.950069)"><g><path d="M 2.0625 -16.09375 L 3.765625 -16.09375 L 3.765625 0 L 2.0625 0 Z M 2.0625 -16.09375 "/></g></g></g><g fill="#f4f6fc" fill-opacity="1"><g transform="translate(295.241756, 216.950069)"><g><path d="M 6.765625 0.1875 C 5.703125 0.1875 4.765625 -0.046875 3.953125 -0.515625 C 3.140625 -0.992188 2.503906 -1.671875 2.046875 -2.546875 C 1.597656 -3.421875 1.375 -4.4375 1.375 -5.59375 L 1.375 -10.515625 C 1.375 -11.660156 1.597656 -12.671875 2.046875 -13.546875 C 2.503906 -14.421875 3.140625 -15.09375 3.953125 -15.5625 C 4.765625 -16.039062 5.707031 -16.28125 6.78125 -16.28125 L 9.21875 -16.28125 C 10.289062 -16.28125 11.234375 -16.039062 12.046875 -15.5625 C 12.859375 -15.09375 13.488281 -14.421875 13.9375 -13.546875 C 14.394531 -12.671875 14.625 -11.660156 14.625 -10.515625 L 14.625 -5.59375 C 14.625 -4.4375 14.394531 -3.425781 13.9375 -2.5625 C 13.488281 -1.695312 12.851562 -1.019531 12.03125 -0.53125 C 11.21875 -0.0507812 10.28125 0.1875 9.21875 0.1875 Z M 9.171875 -1.328125 C 10.296875 -1.328125 11.203125 -1.71875 11.890625 -2.5 C 12.578125 -3.289062 12.921875 -4.320312 12.921875 -5.59375 L 12.921875 -10.515625 C 12.921875 -11.785156 12.578125 -12.8125 11.890625 -13.59375 C 11.203125 -14.375 10.296875 -14.765625 9.171875 -14.765625 L 6.828125 -14.765625 C 5.710938 -14.765625 4.804688 -14.375 4.109375 -13.59375 C 3.421875 -12.8125 3.078125 -11.785156 3.078125 -10.515625 L 3.078125 -5.59375 C 3.078125 -4.320312 3.414062 -3.289062 4.09375 -2.5 C 4.78125 -1.71875 5.6875 -1.328125 6.8125 -1.328125 Z M 9.171875 -1.328125 "/></g></g></g></svg>