<svg xmlns="http://www.w3.org/2000/svg" xmlns:xlink="http://www.w3.org/1999/xlink" width="500" zoomAndPan="magnify" viewBox="0 0 375 374.999991" height="500" preserveAspectRatio="xMidYMid meet" version="1.0"><defs><g/><clipPath id="334ee1a52e"><path d="M 66 141.09375 L 86 141.09375 L 86 146 L 66 146 Z M 66 141.09375 " clip-rule="nonzero"/></clipPath><clipPath id="f53cfef798"><path d="M 66 141.09375 L 86 141.09375 L 86 147 L 66 147 Z M 66 141.09375 " clip-rule="nonzero"/></clipPath><clipPath id="347f74629a"><path d="M 156 141.09375 L 176 141.09375 L 176 146 L 156 146 Z M 156 141.09375 " clip-rule="nonzero"/></clipPath><clipPath id="d267304412"><path d="M 156 141.09375 L 176 141.09375 L 176 147 L 156 147 Z M 156 141.09375 " clip-rule="nonzero"/></clipPath></defs><g clip-path="url(#334ee1a52e)"><path fill="#000000" d="M 85.332031 145.390625 C 85.332031 145.390625 85.332031 144.027344 85.332031 143.683594 C 85.332031 143.34375 84.359375 142.8125 82.519531 142.34375 C 79.164062 141.484375 68.949219 141.628906 67.011719 144.398438 C 66.929688 144.519531 66.90625 145.097656 66.921875 145.753906 C 68.183594 145.449219 70.277344 145.191406 73.117188 145.019531 C 77.292969 144.769531 81.023438 145.082031 83.460938 145.203125 C 84.328125 145.246094 84.878906 145.285156 85.339844 145.382812 Z M 85.332031 145.390625 " fill-opacity="1" fill-rule="evenodd"/></g><g clip-path="url(#f53cfef798)"><path fill="#000000" d="M 84.765625 144.726562 L 84.765625 143.675781 C 84.765625 143.628906 84.605469 143.675781 84.308594 143.542969 C 83.867188 143.328125 83.21875 143.105469 82.378906 142.890625 C 80.503906 142.414062 76.402344 142.257812 72.890625 142.726562 C 70.375 143.0625 68.195312 143.699219 67.476562 144.726562 C 67.449219 144.769531 67.503906 144.769531 67.496094 144.90625 L 67.492188 145.054688 C 68.039062 144.953125 68.671875 144.855469 69.40625 144.769531 C 70.445312 144.648438 71.679688 144.542969 73.082031 144.457031 C 76.621094 144.242188 79.847656 144.433594 82.234375 144.570312 C 83.074219 144.621094 83.9375 144.648438 84.765625 144.726562 Z M 85.902344 143.675781 L 85.890625 145.496094 C 85.824219 145.804688 85.527344 146.003906 85.21875 145.941406 C 84.195312 145.789062 83.203125 145.761719 82.171875 145.703125 C 79.8125 145.570312 76.621094 145.382812 73.144531 145.589844 C 71.75 145.667969 70.539062 145.78125 69.535156 145.898438 C 68.515625 146.019531 67.683594 146.152344 67.070312 146.304688 L 66.921875 146.324219 C 66.609375 146.324219 66.34375 146.074219 66.34375 145.769531 L 66.359375 144.847656 C 66.378906 144.503906 66.4375 144.226562 66.542969 144.070312 C 67.476562 142.742188 69.949219 141.972656 72.742188 141.601562 C 76.386719 141.113281 80.675781 141.285156 82.65625 141.785156 C 83.566406 142.023438 84.292969 142.269531 84.800781 142.515625 C 85.527344 142.855469 85.902344 143.277344 85.902344 143.683594 Z M 85.902344 143.675781 " fill-opacity="1" fill-rule="nonzero"/></g><path fill="#000000" d="M 74.882812 151.222656 C 79.820312 151.222656 84.292969 153.226562 87.527344 156.476562 C 90.761719 159.714844 92.769531 164.199219 92.769531 169.144531 C 92.769531 174.089844 90.769531 178.570312 87.527344 181.8125 C 84.292969 185.054688 79.820312 187.058594 74.882812 187.058594 C 69.949219 187.058594 65.476562 185.054688 62.242188 181.8125 L 62.210938 181.785156 C 58.992188 178.542969 57 174.070312 57 169.144531 C 57 164.199219 59 159.714844 62.242188 156.476562 C 65.480469 153.226562 69.957031 151.222656 74.882812 151.222656 Z M 86.722656 157.273438 C 83.695312 154.242188 79.507812 152.363281 74.882812 152.363281 C 70.261719 152.363281 66.074219 154.242188 63.046875 157.273438 C 60.011719 160.308594 58.144531 164.503906 58.144531 169.144531 C 58.144531 173.769531 60.011719 177.949219 63.023438 180.984375 L 63.046875 181.007812 C 66.074219 184.039062 70.261719 185.917969 74.882812 185.917969 C 79.507812 185.917969 83.695312 184.039062 86.722656 181.007812 C 89.75 177.972656 91.625 173.777344 91.625 169.144531 C 91.625 164.511719 89.75 160.316406 86.722656 157.273438 Z M 86.722656 157.273438 " fill-opacity="1" fill-rule="nonzero"/><path fill="#000000" d="M 112.046875 189.964844 C 111.824219 193.597656 110.078125 196.863281 107.421875 199.214844 C 104.78125 201.546875 101.226562 202.988281 97.355469 202.988281 C 93.484375 202.988281 90 201.546875 87.472656 199.199219 C 84.929688 196.84375 83.347656 193.566406 83.3125 189.933594 L 83.3125 189.898438 C 83.539062 186.03125 85.285156 182.546875 87.933594 180.042969 C 90.582031 177.542969 94.136719 176.003906 98.019531 176.003906 C 101.902344 176.003906 105.390625 177.550781 107.914062 180.058594 C 110.441406 182.570312 112.007812 186.058594 112.039062 189.933594 L 112.039062 189.96875 Z M 106.667969 198.363281 C 109.101562 196.207031 110.699219 193.21875 110.90625 189.90625 C 110.871094 186.359375 109.4375 183.167969 107.117188 180.863281 C 104.800781 178.566406 101.59375 177.144531 98.027344 177.144531 C 94.453125 177.144531 91.167969 178.566406 88.722656 180.871094 C 86.273438 183.183594 84.664062 186.394531 84.457031 189.957031 C 84.5 193.253906 85.9375 196.222656 88.246094 198.371094 C 90.570312 200.519531 93.78125 201.847656 97.363281 201.847656 C 100.949219 201.847656 104.238281 200.519531 106.675781 198.363281 Z M 106.667969 198.363281 " fill-opacity="1" fill-rule="nonzero"/><path fill="#000000" d="M 97.265625 179.519531 C 99.9375 179.519531 102.359375 180.605469 104.109375 182.363281 C 105.863281 184.117188 106.953125 186.542969 106.953125 189.222656 C 106.953125 191.898438 105.871094 194.324219 104.109375 196.078125 C 102.359375 197.835938 99.9375 198.929688 97.265625 198.929688 C 94.59375 198.929688 92.171875 197.84375 90.417969 196.085938 C 88.667969 194.332031 87.578125 191.90625 87.578125 189.226562 C 87.578125 186.550781 88.660156 184.125 90.417969 182.371094 C 92.171875 180.613281 94.59375 179.527344 97.265625 179.527344 Z M 97.265625 179.519531 " fill-opacity="1" fill-rule="nonzero"/><path fill="#000000" d="M 120.976562 199.5 L 133.378906 199.5 C 132.460938 198.40625 131.691406 197.171875 131.113281 195.84375 C 130.386719 194.175781 129.960938 192.332031 129.917969 190.414062 L 129.910156 190.042969 C 129.910156 186.210938 131.414062 182.753906 133.863281 180.226562 C 136.320312 177.703125 139.730469 176.109375 143.550781 176.011719 L 143.921875 176.003906 C 147.894531 176.003906 151.519531 177.617188 154.191406 180.214844 C 156.855469 182.820312 158.558594 186.410156 158.65625 190.382812 C 158.707031 192.425781 158.332031 194.382812 157.609375 196.144531 C 156.976562 197.691406 156.070312 199.097656 154.960938 200.304688 C 155.183594 200.40625 155.382812 200.511719 155.558594 200.625 C 155.945312 200.875 156.230469 201.148438 156.492188 201.425781 C 156.949219 201.910156 157.296875 202.996094 157.910156 204.917969 C 158.800781 207.691406 160.273438 212.308594 163.386719 219.371094 C 165.921875 225.128906 168.792969 228.613281 171.707031 230.5625 C 174.578125 232.488281 177.5 232.9375 180.183594 232.636719 C 182.875 232.339844 185.8125 231.425781 188.234375 229.035156 C 190.675781 226.621094 192.621094 222.6875 193.324219 216.351562 C 194.691406 203.9375 190.007812 184.859375 186.445312 170.34375 L 186.054688 168.742188 C 182.476562 154.167969 177.304688 148.800781 177.292969 148.789062 C 177.226562 148.714844 177.175781 148.636719 177.148438 148.550781 C 177.09375 148.421875 176.472656 147.0625 175.925781 146.660156 L 175.902344 146.648438 C 175.609375 146.453125 174.863281 146.253906 173.703125 146.070312 C 172.492188 145.875 170.84375 145.710938 168.816406 145.589844 C 165.339844 145.382812 162.148438 145.570312 159.789062 145.703125 L 158.535156 145.777344 C 156.414062 145.882812 156.3125 145.945312 154.375 147.089844 L 153.871094 147.382812 C 153.777344 147.433594 153.6875 147.460938 153.585938 147.460938 L 88.367188 147.460938 C 88.246094 147.460938 88.132812 147.425781 88.039062 147.359375 L 87.578125 147.089844 C 85.640625 145.945312 85.535156 145.882812 83.417969 145.777344 L 82.164062 145.703125 C 79.804688 145.570312 76.617188 145.382812 73.140625 145.589844 C 71.109375 145.710938 69.464844 145.882812 68.253906 146.070312 C 67.054688 146.261719 66.300781 146.460938 66.03125 146.667969 C 65.453125 147.089844 64.804688 148.566406 64.804688 148.566406 C 64.777344 148.652344 64.726562 148.730469 64.671875 148.789062 C 64.65625 148.800781 59.492188 154.167969 55.914062 168.742188 L 55.523438 170.34375 C 51.960938 184.851562 47.277344 203.929688 48.644531 216.351562 C 49.339844 222.6875 51.292969 226.621094 53.734375 229.035156 C 56.15625 231.417969 59.09375 232.332031 61.785156 232.636719 C 64.46875 232.9375 67.390625 232.488281 70.253906 230.5625 C 73.167969 228.605469 76.039062 225.121094 78.574219 219.371094 C 81.6875 212.308594 83.160156 207.691406 84.050781 204.917969 C 84.664062 202.996094 85.011719 201.910156 85.46875 201.425781 L 85.492188 201.40625 C 85.746094 201.132812 86.03125 200.863281 86.394531 200.625 C 86.574219 200.511719 86.765625 200.40625 86.992188 200.304688 C 85.882812 199.097656 84.976562 197.691406 84.34375 196.144531 C 83.625 194.382812 83.238281 192.425781 83.296875 190.382812 C 83.394531 186.410156 85.097656 182.8125 87.761719 180.214844 C 90.425781 177.617188 94.058594 176.003906 98.027344 176.003906 L 98.398438 176.011719 C 102.222656 176.109375 105.632812 177.703125 108.089844 180.226562 C 110.542969 182.753906 112.050781 186.210938 112.050781 190.035156 L 112.046875 190.40625 C 111.996094 192.332031 111.566406 194.175781 110.847656 195.84375 L 110.835938 195.875 C 110.265625 197.1875 109.496094 198.414062 108.582031 199.5 L 120.984375 199.5 Z M 134.675781 200.640625 L 107.28125 200.640625 C 107.136719 200.640625 106.988281 200.582031 106.878906 200.46875 C 106.660156 200.25 106.660156 199.882812 106.878906 199.664062 C 108.097656 198.449219 109.097656 197.007812 109.785156 195.410156 L 109.792969 195.386719 C 110.464844 193.847656 110.855469 192.148438 110.898438 190.382812 L 110.898438 190.035156 C 110.898438 186.515625 109.515625 183.332031 107.265625 181.019531 C 105.015625 178.707031 101.875 177.238281 98.367188 177.152344 L 98.019531 177.152344 C 94.359375 177.152344 91.011719 178.636719 88.546875 181.035156 C 86.089844 183.433594 84.515625 186.75 84.421875 190.414062 C 84.378906 192.296875 84.722656 194.097656 85.382812 195.707031 C 86.074219 197.394531 87.109375 198.898438 88.402344 200.128906 C 88.476562 200.199219 88.53125 200.285156 88.558594 200.390625 C 88.640625 200.699219 88.460938 201.003906 88.160156 201.089844 C 87.65625 201.226562 87.292969 201.398438 87 201.582031 C 86.730469 201.761719 86.507812 201.96875 86.300781 202.183594 L 86.28125 202.210938 C 85.996094 202.511719 85.675781 203.511719 85.113281 205.273438 C 84.214844 208.085938 82.71875 212.761719 79.601562 219.839844 C 76.972656 225.808594 73.953125 229.449219 70.867188 231.515625 C 67.738281 233.617188 64.554688 234.101562 61.636719 233.78125 C 58.730469 233.457031 55.550781 232.460938 52.910156 229.859375 C 50.296875 227.285156 48.222656 223.125 47.488281 216.484375 C 46.101562 203.867188 50.808594 184.683594 54.398438 170.085938 L 54.789062 168.488281 C 58.210938 154.539062 63.160156 148.753906 63.785156 148.066406 C 64.007812 147.601562 64.699219 146.234375 65.355469 145.753906 C 65.773438 145.449219 66.691406 145.175781 68.0625 144.953125 C 69.320312 144.753906 71.003906 144.582031 73.0625 144.460938 C 76.601562 144.25 79.828125 144.441406 82.214844 144.578125 L 83.46875 144.648438 C 85.859375 144.769531 85.976562 144.839844 88.140625 146.109375 L 88.511719 146.324219 L 153.421875 146.324219 L 153.792969 146.109375 C 155.957031 144.839844 156.070312 144.769531 158.457031 144.648438 L 159.71875 144.578125 C 162.105469 144.441406 165.332031 144.25 168.871094 144.460938 C 170.929688 144.582031 172.617188 144.761719 173.871094 144.953125 C 175.199219 145.167969 176.101562 145.433594 176.542969 145.726562 L 176.585938 145.753906 C 177.242188 146.234375 177.933594 147.601562 178.152344 148.066406 C 178.773438 148.753906 183.730469 154.539062 187.148438 168.488281 L 187.542969 170.085938 C 191.125 184.683594 195.839844 203.867188 194.449219 216.484375 C 193.71875 223.125 191.644531 227.277344 189.03125 229.859375 C 186.394531 232.464844 183.21875 233.457031 180.304688 233.78125 C 177.382812 234.101562 174.199219 233.617188 171.074219 231.515625 C 167.988281 229.449219 164.976562 225.808594 162.339844 219.839844 C 159.21875 212.761719 157.726562 208.085938 156.828125 205.273438 C 156.265625 203.511719 155.945312 202.511719 155.660156 202.210938 C 155.445312 201.984375 155.21875 201.761719 154.941406 201.582031 C 154.65625 201.398438 154.292969 201.234375 153.800781 201.097656 C 153.699219 201.078125 153.601562 201.019531 153.523438 200.933594 C 153.308594 200.707031 153.316406 200.347656 153.535156 200.128906 C 154.832031 198.898438 155.871094 197.394531 156.554688 195.707031 C 157.21875 194.089844 157.566406 192.296875 157.519531 190.414062 C 157.425781 186.75 155.851562 183.433594 153.394531 181.035156 C 150.9375 178.636719 147.582031 177.152344 143.921875 177.152344 L 143.578125 177.152344 C 140.058594 177.238281 136.925781 178.707031 134.675781 181.019531 C 132.425781 183.339844 131.042969 186.515625 131.042969 190.035156 L 131.042969 190.378906 C 131.085938 192.148438 131.476562 193.847656 132.144531 195.386719 C 132.835938 196.980469 133.820312 198.421875 135.03125 199.632812 C 135.152344 199.742188 135.230469 199.890625 135.230469 200.070312 C 135.230469 200.382812 134.972656 200.640625 134.660156 200.640625 Z M 134.675781 200.640625 " fill-opacity="1" fill-rule="nonzero"/><path fill="#000000" d="M 120.976562 200.070312 L 128.300781 200.070312 C 127.945312 198.90625 126.738281 198.726562 125.855469 198.726562 L 116.113281 198.726562 C 115.222656 198.726562 114.023438 198.90625 113.667969 200.070312 L 120.992188 200.070312 Z M 120.976562 200.070312 " fill-opacity="1" fill-rule="evenodd"/><path fill="#000000" d="M 128.300781 200.640625 L 113.660156 200.640625 L 113.492188 200.613281 C 113.191406 200.519531 113.019531 200.199219 113.113281 199.898438 C 113.347656 199.128906 113.867188 198.679688 114.46875 198.433594 C 115.007812 198.207031 115.605469 198.15625 116.105469 198.15625 L 125.847656 198.15625 C 126.347656 198.15625 126.945312 198.214844 127.488281 198.433594 C 128.078125 198.679688 128.585938 199.113281 128.828125 199.871094 L 128.863281 200.070312 C 128.863281 200.382812 128.605469 200.640625 128.292969 200.640625 Z M 128.300781 200.640625 " fill-opacity="1" fill-rule="nonzero"/><g clip-path="url(#347f74629a)"><path fill="#000000" d="M 156.628906 145.390625 C 156.628906 145.390625 156.628906 144.027344 156.628906 143.683594 C 156.628906 143.34375 157.605469 142.8125 159.441406 142.34375 C 162.796875 141.484375 173.011719 141.628906 174.949219 144.398438 C 175.035156 144.519531 175.054688 145.097656 175.039062 145.753906 C 173.78125 145.449219 171.6875 145.191406 168.84375 145.019531 C 164.667969 144.769531 160.9375 145.082031 158.5 145.203125 C 157.632812 145.246094 157.082031 145.285156 156.621094 145.382812 Z M 156.628906 145.390625 " fill-opacity="1" fill-rule="evenodd"/></g><g clip-path="url(#d267304412)"><path fill="#000000" d="M 156.058594 145.390625 L 156.058594 143.683594 C 156.058594 143.277344 156.433594 142.863281 157.160156 142.515625 C 157.660156 142.277344 158.386719 142.023438 159.304688 141.785156 C 161.285156 141.285156 165.566406 141.113281 169.222656 141.601562 C 172.011719 141.972656 174.484375 142.742188 175.417969 144.070312 C 175.53125 144.226562 175.589844 144.503906 175.609375 144.847656 L 175.625 145.761719 C 175.625 146.074219 175.359375 146.324219 175.046875 146.324219 L 174.898438 146.304688 C 174.285156 146.160156 173.453125 146.019531 172.433594 145.898438 C 171.429688 145.78125 170.21875 145.667969 168.824219 145.589844 C 165.347656 145.382812 162.15625 145.570312 159.796875 145.703125 C 158.695312 145.769531 157.71875 145.839844 156.636719 145.953125 C 156.320312 145.953125 156.066406 145.699219 156.066406 145.382812 Z M 157.199219 143.683594 L 157.199219 144.734375 C 158.03125 144.65625 158.894531 144.621094 159.726562 144.578125 C 162.113281 144.441406 165.339844 144.25 168.878906 144.460938 C 170.28125 144.546875 171.507812 144.65625 172.554688 144.777344 C 173.289062 144.863281 173.929688 144.953125 174.472656 145.0625 L 174.464844 144.914062 C 174.457031 144.777344 174.507812 144.769531 174.484375 144.734375 C 173.765625 143.699219 171.585938 143.0625 169.066406 142.726562 C 165.554688 142.265625 161.449219 142.414062 159.578125 142.890625 C 158.734375 143.105469 158.089844 143.335938 157.644531 143.542969 C 157.347656 143.683594 157.191406 143.628906 157.191406 143.675781 Z M 157.199219 143.683594 " fill-opacity="1" fill-rule="nonzero"/></g><path fill="#000000" d="M 167.070312 152.363281 C 162.445312 152.363281 158.257812 154.242188 155.230469 157.273438 C 152.199219 160.308594 150.332031 164.503906 150.332031 169.144531 C 150.332031 173.78125 152.203125 177.972656 155.230469 181.007812 C 158.257812 184.039062 162.445312 185.917969 167.078125 185.917969 C 171.699219 185.917969 175.886719 184.039062 178.914062 181.007812 C 181.941406 177.972656 183.816406 173.777344 183.816406 169.144531 C 183.816406 164.511719 181.941406 160.316406 178.914062 157.28125 L 178.894531 157.261719 C 175.867188 154.242188 171.691406 152.371094 167.078125 152.371094 Z M 154.425781 156.476562 C 157.667969 153.226562 162.140625 151.222656 167.070312 151.222656 C 171.992188 151.222656 176.449219 153.214844 179.683594 156.445312 L 179.714844 156.476562 C 182.945312 159.714844 184.957031 164.199219 184.957031 169.144531 C 184.957031 174.089844 182.953125 178.570312 179.714844 181.8125 C 176.480469 185.054688 172.007812 187.058594 167.070312 187.058594 C 162.132812 187.058594 157.660156 185.054688 154.425781 181.8125 C 151.1875 178.566406 149.183594 174.082031 149.183594 169.144531 C 149.183594 164.199219 151.1875 159.722656 154.425781 156.476562 Z M 154.425781 156.476562 " fill-opacity="1" fill-rule="nonzero"/><path fill="#000000" d="M 98.078125 176.003906 L 98.398438 176.011719 C 102.222656 176.109375 105.632812 177.703125 108.089844 180.226562 C 110.542969 182.753906 112.050781 186.210938 112.050781 190.035156 L 112.046875 190.40625 C 111.945312 194.386719 110.242188 197.984375 107.578125 200.582031 C 104.914062 203.183594 101.28125 204.792969 97.316406 204.792969 L 96.945312 204.789062 C 93.121094 204.6875 89.707031 203.097656 87.25 200.570312 C 84.800781 198.042969 83.289062 194.589844 83.289062 190.761719 L 83.296875 190.390625 C 83.394531 186.417969 85.097656 182.820312 87.761719 180.214844 C 90.425781 177.617188 94.058594 176.003906 98.027344 176.003906 Z M 98.375 177.144531 L 98.027344 177.144531 C 94.367188 177.144531 91.019531 178.628906 88.554688 181.027344 C 86.097656 183.425781 84.523438 186.746094 84.429688 190.40625 L 84.429688 190.753906 C 84.429688 194.273438 85.8125 197.457031 88.0625 199.769531 C 90.3125 202.082031 93.453125 203.554688 96.957031 203.636719 L 97.308594 203.636719 C 100.960938 203.636719 104.316406 202.152344 106.773438 199.753906 C 109.230469 197.359375 110.804688 194.039062 110.898438 190.378906 L 110.898438 190.027344 C 110.898438 186.507812 109.515625 183.324219 107.265625 181.011719 C 105.015625 178.699219 101.875 177.230469 98.367188 177.144531 Z M 98.375 177.144531 " fill-opacity="1" fill-rule="nonzero"/><path fill="#000000" d="M 143.898438 177.144531 L 143.585938 177.152344 C 140.074219 177.238281 136.941406 178.707031 134.6875 181.019531 C 132.4375 183.339844 131.054688 186.515625 131.054688 190.035156 L 131.054688 190.382812 C 131.148438 194.046875 132.722656 197.363281 135.179688 199.761719 C 137.636719 202.160156 140.992188 203.644531 144.648438 203.644531 L 144.996094 203.644531 C 148.507812 203.558594 151.640625 202.089844 153.890625 199.777344 C 156.144531 197.457031 157.523438 194.28125 157.523438 190.761719 L 157.523438 190.414062 C 157.433594 186.75 155.859375 183.433594 153.402344 181.035156 C 150.945312 178.636719 147.589844 177.152344 143.925781 177.152344 L 143.890625 177.152344 Z M 143.558594 176.011719 L 143.925781 176.003906 C 147.894531 176.003906 151.519531 177.617188 154.191406 180.214844 C 156.855469 182.820312 158.558594 186.410156 158.65625 190.382812 L 158.664062 190.761719 C 158.664062 194.589844 157.160156 198.050781 154.703125 200.570312 C 152.246094 203.097656 148.835938 204.6875 145.015625 204.789062 L 144.640625 204.792969 C 140.679688 204.792969 137.046875 203.183594 134.375 200.582031 C 131.710938 197.980469 130.007812 194.386719 129.910156 190.414062 L 129.902344 190.035156 C 129.902344 186.210938 131.40625 182.746094 133.863281 180.226562 C 136.320312 177.703125 139.730469 176.109375 143.558594 176.011719 Z M 143.558594 176.011719 " fill-opacity="1" fill-rule="nonzero"/><path fill="#000000" d="M 129.910156 189.964844 C 129.894531 189.648438 130.128906 189.378906 130.445312 189.363281 C 130.757812 189.347656 131.027344 189.585938 131.042969 189.898438 C 131.242188 193.21875 132.84375 196.207031 135.28125 198.363281 C 137.714844 200.519531 141.007812 201.847656 144.589844 201.847656 C 148.171875 201.847656 151.386719 200.519531 153.707031 198.371094 C 156.015625 196.230469 157.453125 193.253906 157.496094 189.957031 C 157.28125 186.394531 155.679688 183.183594 153.230469 180.871094 C 150.785156 178.566406 147.503906 177.144531 143.925781 177.144531 C 143.613281 177.144531 143.359375 176.886719 143.359375 176.574219 C 143.359375 176.257812 143.613281 176.003906 143.925781 176.003906 C 147.800781 176.003906 151.363281 177.542969 154.011719 180.042969 C 156.671875 182.546875 158.410156 186.03125 158.636719 189.898438 L 158.636719 189.933594 C 158.601562 193.566406 157.027344 196.84375 154.476562 199.199219 C 151.949219 201.539062 148.464844 202.988281 144.589844 202.988281 C 140.722656 202.988281 137.167969 201.546875 134.523438 199.214844 C 131.867188 196.863281 130.125 193.597656 129.902344 189.964844 Z M 129.910156 189.964844 " fill-opacity="1" fill-rule="nonzero"/><path fill="#000000" d="M 137.851562 182.363281 C 139.605469 180.605469 142.027344 179.519531 144.695312 179.519531 C 147.367188 179.519531 149.789062 180.605469 151.542969 182.363281 C 153.292969 184.117188 154.382812 186.542969 154.382812 189.222656 C 154.382812 191.898438 153.300781 194.324219 151.542969 196.078125 C 149.789062 197.835938 147.367188 198.921875 144.695312 198.921875 C 142.027344 198.921875 139.605469 197.835938 137.851562 196.078125 C 136.097656 194.324219 135.015625 191.898438 135.015625 189.222656 C 135.015625 186.542969 136.097656 184.117188 137.859375 182.363281 Z M 137.851562 182.363281 " fill-opacity="1" fill-rule="nonzero"/><path fill="#000000" d="M 98.367188 145.988281 L 143.585938 145.988281 C 144.753906 145.988281 145.699219 146.945312 145.699219 148.109375 L 145.699219 170.972656 C 145.699219 172.917969 144.113281 174.511719 142.167969 174.511719 L 99.773438 174.511719 C 97.828125 174.511719 96.238281 172.917969 96.238281 170.972656 L 96.238281 148.109375 C 96.238281 146.9375 97.195312 145.988281 98.355469 145.988281 Z M 98.367188 145.988281 " fill-opacity="1" fill-rule="evenodd"/><path fill="#000000" d="M 98.367188 145.417969 L 143.585938 145.417969 C 144.320312 145.417969 145.003906 145.726562 145.480469 146.210938 C 145.964844 146.695312 146.269531 147.375 146.269531 148.109375 L 146.269531 170.972656 C 146.269531 172.097656 145.808594 173.125 145.066406 173.875 C 144.328125 174.617188 143.300781 175.082031 142.167969 175.082031 L 99.773438 175.082031 C 98.648438 175.082031 97.613281 174.617188 96.875 173.875 C 96.132812 173.132812 95.667969 172.105469 95.667969 170.972656 L 95.667969 148.109375 C 95.667969 147.367188 95.976562 146.6875 96.460938 146.210938 C 96.945312 145.726562 97.621094 145.417969 98.355469 145.417969 Z M 98.367188 145.417969 " fill-opacity="1" fill-rule="nonzero"/><path fill="#000000" d="M 90.988281 149.921875 C 91.332031 149.921875 91.664062 150.035156 91.980469 150.261719 C 92.296875 150.488281 92.574219 150.8125 92.816406 151.230469 C 93.058594 151.648438 93.246094 152.128906 93.378906 152.675781 C 93.507812 153.222656 93.574219 153.792969 93.574219 154.382812 C 93.574219 154.976562 93.507812 155.542969 93.378906 156.089844 C 93.246094 156.636719 93.058594 157.121094 92.816406 157.539062 C 92.574219 157.957031 92.296875 158.277344 91.980469 158.503906 C 91.664062 158.730469 91.332031 158.84375 90.988281 158.84375 C 90.648438 158.84375 90.316406 158.730469 90 158.503906 C 89.683594 158.277344 89.402344 157.957031 89.160156 157.539062 C 88.917969 157.121094 88.730469 156.636719 88.601562 156.089844 C 88.46875 155.542969 88.402344 154.976562 88.402344 154.382812 C 88.402344 153.792969 88.46875 153.222656 88.601562 152.675781 C 88.730469 152.128906 88.917969 151.648438 89.160156 151.230469 C 89.402344 150.8125 89.683594 150.488281 90 150.261719 C 90.316406 150.035156 90.648438 149.921875 90.988281 149.921875 Z M 90.988281 149.921875 " fill-opacity="1" fill-rule="evenodd"/><path fill="#000000" d="M 150.972656 149.921875 C 151.316406 149.921875 151.644531 150.035156 151.960938 150.261719 C 152.277344 150.488281 152.558594 150.8125 152.800781 151.230469 C 153.042969 151.648438 153.230469 152.128906 153.359375 152.675781 C 153.492188 153.222656 153.558594 153.792969 153.558594 154.382812 C 153.558594 154.976562 153.492188 155.542969 153.359375 156.089844 C 153.230469 156.636719 153.042969 157.121094 152.800781 157.539062 C 152.558594 157.957031 152.277344 158.277344 151.960938 158.503906 C 151.644531 158.730469 151.316406 158.84375 150.972656 158.84375 C 150.628906 158.84375 150.300781 158.730469 149.984375 158.503906 C 149.664062 158.277344 149.386719 157.957031 149.144531 157.539062 C 148.902344 157.121094 148.714844 156.636719 148.582031 156.089844 C 148.453125 155.542969 148.386719 154.976562 148.386719 154.382812 C 148.386719 153.792969 148.453125 153.222656 148.582031 152.675781 C 148.714844 152.128906 148.902344 151.648438 149.144531 151.230469 C 149.386719 150.8125 149.664062 150.488281 149.984375 150.261719 C 150.300781 150.035156 150.628906 149.921875 150.972656 149.921875 Z M 150.972656 149.921875 " fill-opacity="1" fill-rule="evenodd"/><path fill="#000000" d="M 125.042969 189.777344 C 125.042969 190.046875 125.019531 190.308594 124.964844 190.574219 C 124.914062 190.835938 124.835938 191.089844 124.734375 191.335938 C 124.632812 191.585938 124.507812 191.820312 124.359375 192.042969 C 124.210938 192.265625 124.042969 192.46875 123.851562 192.660156 C 123.664062 192.847656 123.457031 193.019531 123.238281 193.167969 C 123.015625 193.316406 122.78125 193.441406 122.535156 193.542969 C 122.285156 193.644531 122.03125 193.722656 121.769531 193.773438 C 121.507812 193.828125 121.246094 193.851562 120.976562 193.851562 C 120.710938 193.851562 120.445312 193.828125 120.183594 193.773438 C 119.921875 193.722656 119.667969 193.644531 119.421875 193.542969 C 119.175781 193.441406 118.941406 193.316406 118.71875 193.167969 C 118.496094 193.019531 118.289062 192.847656 118.101562 192.660156 C 117.914062 192.46875 117.742188 192.265625 117.59375 192.042969 C 117.445312 191.820312 117.320312 191.585938 117.21875 191.335938 C 117.117188 191.089844 117.039062 190.835938 116.988281 190.574219 C 116.9375 190.308594 116.910156 190.046875 116.910156 189.777344 C 116.910156 189.511719 116.9375 189.246094 116.988281 188.984375 C 117.039062 188.71875 117.117188 188.464844 117.21875 188.21875 C 117.320312 187.972656 117.445312 187.734375 117.59375 187.511719 C 117.742188 187.292969 117.914062 187.085938 118.101562 186.894531 C 118.289062 186.707031 118.496094 186.539062 118.71875 186.390625 C 118.941406 186.242188 119.175781 186.113281 119.421875 186.011719 C 119.667969 185.910156 119.921875 185.832031 120.183594 185.78125 C 120.445312 185.726562 120.710938 185.703125 120.976562 185.703125 C 121.246094 185.703125 121.507812 185.726562 121.769531 185.78125 C 122.03125 185.832031 122.285156 185.910156 122.535156 186.011719 C 122.78125 186.113281 123.015625 186.242188 123.238281 186.390625 C 123.457031 186.539062 123.664062 186.707031 123.851562 186.894531 C 124.042969 187.085938 124.210938 187.292969 124.359375 187.511719 C 124.507812 187.734375 124.632812 187.972656 124.734375 188.21875 C 124.835938 188.464844 124.914062 188.71875 124.964844 188.984375 C 125.019531 189.246094 125.042969 189.511719 125.042969 189.777344 Z M 125.042969 189.777344 " fill-opacity="1" fill-rule="nonzero"/><path fill="#000000" d="M 172.148438 158.316406 C 172.148438 158.648438 172.117188 158.980469 172.050781 159.308594 C 171.984375 159.636719 171.890625 159.953125 171.761719 160.265625 C 171.632812 160.574219 171.476562 160.867188 171.292969 161.144531 C 171.109375 161.421875 170.898438 161.679688 170.660156 161.914062 C 170.425781 162.152344 170.167969 162.363281 169.890625 162.546875 C 169.613281 162.734375 169.320312 162.890625 169.011719 163.019531 C 168.707031 163.144531 168.386719 163.242188 168.0625 163.308594 C 167.734375 163.371094 167.402344 163.40625 167.070312 163.40625 C 166.738281 163.40625 166.40625 163.371094 166.078125 163.308594 C 165.753906 163.242188 165.433594 163.144531 165.125 163.019531 C 164.820312 162.890625 164.527344 162.734375 164.25 162.546875 C 163.972656 162.363281 163.714844 162.152344 163.480469 161.914062 C 163.242188 161.679688 163.03125 161.421875 162.847656 161.144531 C 162.660156 160.867188 162.503906 160.574219 162.378906 160.265625 C 162.25 159.953125 162.152344 159.636719 162.089844 159.308594 C 162.023438 158.980469 161.992188 158.648438 161.992188 158.316406 C 161.992188 157.980469 162.023438 157.652344 162.089844 157.324219 C 162.152344 156.996094 162.25 156.675781 162.378906 156.367188 C 162.503906 156.058594 162.660156 155.765625 162.847656 155.488281 C 163.03125 155.210938 163.242188 154.953125 163.480469 154.71875 C 163.714844 154.480469 163.972656 154.269531 164.25 154.085938 C 164.527344 153.898438 164.820312 153.742188 165.125 153.613281 C 165.433594 153.488281 165.753906 153.390625 166.078125 153.324219 C 166.40625 153.261719 166.738281 153.226562 167.070312 153.226562 C 167.402344 153.226562 167.734375 153.261719 168.0625 153.324219 C 168.386719 153.390625 168.707031 153.488281 169.011719 153.613281 C 169.320312 153.742188 169.613281 153.898438 169.890625 154.085938 C 170.167969 154.269531 170.425781 154.480469 170.660156 154.71875 C 170.898438 154.953125 171.109375 155.210938 171.292969 155.488281 C 171.476562 155.765625 171.632812 156.058594 171.761719 156.367188 C 171.890625 156.675781 171.984375 156.996094 172.050781 157.324219 C 172.117188 157.652344 172.148438 157.980469 172.148438 158.316406 Z M 172.148438 158.316406 " fill-opacity="1" fill-rule="nonzero"/><path fill="#000000" d="M 177.878906 164.058594 C 177.546875 164.058594 177.214844 164.089844 176.890625 164.15625 C 176.5625 164.222656 176.246094 164.316406 175.9375 164.445312 C 175.628906 164.574219 175.335938 164.730469 175.058594 164.914062 C 174.78125 165.101562 174.527344 165.3125 174.289062 165.546875 C 174.054688 165.785156 173.84375 166.042969 173.660156 166.320312 C 173.472656 166.597656 173.316406 166.890625 173.191406 167.199219 C 173.0625 167.507812 172.964844 167.824219 172.902344 168.152344 C 172.835938 168.480469 172.804688 168.808594 172.804688 169.144531 C 172.804688 169.476562 172.835938 169.808594 172.902344 170.136719 C 172.964844 170.464844 173.0625 170.78125 173.191406 171.089844 C 173.316406 171.398438 173.472656 171.691406 173.660156 171.96875 C 173.84375 172.246094 174.054688 172.503906 174.289062 172.742188 C 174.527344 172.976562 174.78125 173.1875 175.058594 173.371094 C 175.335938 173.558594 175.628906 173.714844 175.9375 173.84375 C 176.246094 173.96875 176.5625 174.066406 176.890625 174.132812 C 177.214844 174.199219 177.546875 174.230469 177.878906 174.230469 C 178.210938 174.230469 178.542969 174.199219 178.871094 174.132812 C 179.195312 174.066406 179.511719 173.96875 179.820312 173.84375 C 180.128906 173.714844 180.421875 173.558594 180.699219 173.371094 C 180.976562 173.1875 181.230469 172.976562 181.46875 172.742188 C 181.703125 172.503906 181.914062 172.246094 182.097656 171.96875 C 182.285156 171.691406 182.441406 171.398438 182.566406 171.089844 C 182.695312 170.78125 182.792969 170.464844 182.855469 170.136719 C 182.921875 169.808594 182.953125 169.476562 182.953125 169.144531 C 182.953125 168.808594 182.921875 168.480469 182.855469 168.152344 C 182.792969 167.824219 182.695312 167.507812 182.566406 167.199219 C 182.441406 166.890625 182.285156 166.597656 182.097656 166.320312 C 181.914062 166.042969 181.703125 165.785156 181.46875 165.546875 C 181.230469 165.3125 180.976562 165.101562 180.699219 164.914062 C 180.421875 164.730469 180.128906 164.574219 179.820312 164.445312 C 179.511719 164.316406 179.195312 164.222656 178.871094 164.15625 C 178.542969 164.089844 178.210938 164.058594 177.878906 164.058594 Z M 177.878906 164.058594 " fill-opacity="1" fill-rule="nonzero"/><path fill="#000000" d="M 172.148438 179.972656 C 172.148438 180.304688 172.117188 180.636719 172.050781 180.964844 C 171.984375 181.292969 171.890625 181.609375 171.761719 181.917969 C 171.632812 182.226562 171.476562 182.519531 171.292969 182.796875 C 171.109375 183.074219 170.898438 183.332031 170.660156 183.570312 C 170.425781 183.804688 170.167969 184.015625 169.890625 184.203125 C 169.613281 184.386719 169.320312 184.542969 169.011719 184.671875 C 168.707031 184.800781 168.386719 184.898438 168.0625 184.960938 C 167.734375 185.027344 167.402344 185.058594 167.070312 185.058594 C 166.738281 185.058594 166.40625 185.027344 166.078125 184.960938 C 165.753906 184.898438 165.433594 184.800781 165.125 184.671875 C 164.820312 184.542969 164.527344 184.386719 164.25 184.203125 C 163.972656 184.015625 163.714844 183.804688 163.480469 183.570312 C 163.242188 183.332031 163.03125 183.074219 162.847656 182.796875 C 162.660156 182.519531 162.503906 182.226562 162.378906 181.917969 C 162.25 181.609375 162.152344 181.292969 162.089844 180.964844 C 162.023438 180.636719 161.992188 180.304688 161.992188 179.972656 C 161.992188 179.636719 162.023438 179.304688 162.089844 178.976562 C 162.152344 178.652344 162.25 178.332031 162.378906 178.023438 C 162.503906 177.714844 162.660156 177.421875 162.847656 177.144531 C 163.03125 176.867188 163.242188 176.609375 163.480469 176.371094 C 163.714844 176.136719 163.972656 175.925781 164.25 175.738281 C 164.527344 175.554688 164.820312 175.398438 165.125 175.269531 C 165.433594 175.140625 165.753906 175.046875 166.078125 174.980469 C 166.40625 174.914062 166.738281 174.882812 167.070312 174.882812 C 167.402344 174.882812 167.734375 174.914062 168.0625 174.980469 C 168.386719 175.046875 168.707031 175.140625 169.011719 175.269531 C 169.320312 175.398438 169.613281 175.554688 169.890625 175.738281 C 170.167969 175.925781 170.425781 176.136719 170.660156 176.371094 C 170.898438 176.609375 171.109375 176.867188 171.292969 177.144531 C 171.476562 177.421875 171.632812 177.714844 171.761719 178.023438 C 171.890625 178.332031 171.984375 178.652344 172.050781 178.976562 C 172.117188 179.304688 172.148438 179.636719 172.148438 179.972656 Z M 172.148438 179.972656 " fill-opacity="1" fill-rule="nonzero"/><path fill="#000000" d="M 156.265625 164.058594 C 155.933594 164.058594 155.601562 164.089844 155.277344 164.15625 C 154.949219 164.222656 154.632812 164.316406 154.324219 164.445312 C 154.015625 164.574219 153.722656 164.730469 153.445312 164.914062 C 153.167969 165.101562 152.914062 165.3125 152.679688 165.546875 C 152.441406 165.785156 152.230469 166.042969 152.046875 166.320312 C 151.863281 166.597656 151.707031 166.890625 151.578125 167.199219 C 151.449219 167.507812 151.355469 167.824219 151.289062 168.152344 C 151.222656 168.480469 151.191406 168.808594 151.191406 169.144531 C 151.191406 169.476562 151.222656 169.808594 151.289062 170.136719 C 151.355469 170.464844 151.449219 170.78125 151.578125 171.089844 C 151.707031 171.398438 151.863281 171.691406 152.046875 171.96875 C 152.230469 172.246094 152.441406 172.503906 152.679688 172.742188 C 152.914062 172.976562 153.167969 173.1875 153.445312 173.371094 C 153.722656 173.558594 154.015625 173.714844 154.324219 173.84375 C 154.632812 173.96875 154.949219 174.066406 155.277344 174.132812 C 155.601562 174.199219 155.933594 174.230469 156.265625 174.230469 C 156.601562 174.230469 156.929688 174.199219 157.257812 174.132812 C 157.582031 174.066406 157.902344 173.96875 158.207031 173.84375 C 158.515625 173.714844 158.808594 173.558594 159.085938 173.371094 C 159.363281 173.1875 159.621094 172.976562 159.855469 172.742188 C 160.089844 172.503906 160.300781 172.246094 160.488281 171.96875 C 160.671875 171.691406 160.828125 171.398438 160.957031 171.089844 C 161.082031 170.78125 161.179688 170.464844 161.246094 170.136719 C 161.308594 169.808594 161.34375 169.476562 161.34375 169.144531 C 161.34375 168.808594 161.308594 168.480469 161.246094 168.152344 C 161.179688 167.824219 161.082031 167.507812 160.957031 167.199219 C 160.828125 166.890625 160.671875 166.597656 160.488281 166.320312 C 160.300781 166.042969 160.089844 165.785156 159.855469 165.546875 C 159.621094 165.3125 159.363281 165.101562 159.085938 164.914062 C 158.808594 164.730469 158.515625 164.574219 158.207031 164.445312 C 157.902344 164.316406 157.582031 164.222656 157.257812 164.15625 C 156.929688 164.089844 156.601562 164.058594 156.265625 164.058594 Z M 156.265625 164.058594 " fill-opacity="1" fill-rule="nonzero"/><path fill="#000000" d="M 48.394531 211.054688 C 48.449219 213.074219 49.648438 216.414062 52.816406 219.027344 C 55.039062 220.859375 58.238281 222.332031 62.695312 222.722656 C 68.222656 223.214844 71.734375 222.972656 74.121094 222.28125 C 76.421875 221.617188 77.65625 220.511719 78.644531 219.253906 C 78.835938 219.011719 79.199219 218.96875 79.441406 219.164062 C 79.648438 219.328125 79.707031 219.605469 79.605469 219.839844 C 76.980469 225.808594 73.957031 229.449219 70.875 231.515625 C 67.746094 233.617188 64.5625 234.101562 61.644531 233.78125 C 58.738281 233.457031 55.558594 232.460938 52.917969 229.859375 C 50.304688 227.285156 48.230469 223.125 47.496094 216.484375 C 47.402344 215.628906 47.339844 214.746094 47.296875 213.851562 C 47.253906 212.960938 47.238281 212.023438 47.246094 211.070312 C 47.246094 210.753906 47.511719 210.503906 47.824219 210.503906 C 48.128906 210.503906 48.378906 210.753906 48.386719 211.0625 Z M 52.089844 219.90625 C 50.472656 218.570312 49.328125 217.050781 48.558594 215.578125 L 48.636719 216.363281 C 49.335938 222.703125 51.285156 226.636719 53.730469 229.046875 C 56.152344 231.429688 59.085938 232.34375 61.777344 232.652344 C 64.464844 232.953125 67.382812 232.503906 70.246094 230.574219 C 72.660156 228.953125 75.054688 226.277344 77.25 222.125 C 76.496094 222.625 75.582031 223.050781 74.441406 223.378906 C 71.933594 224.109375 68.289062 224.367188 62.605469 223.859375 C 57.882812 223.4375 54.476562 221.867188 52.097656 219.90625 Z M 52.089844 219.90625 " fill-opacity="1" fill-rule="nonzero"/><path fill="#000000" d="M 193.398438 215.578125 C 192.628906 217.050781 191.480469 218.570312 189.863281 219.90625 C 187.484375 221.867188 184.078125 223.4375 179.355469 223.859375 C 173.671875 224.367188 170.027344 224.101562 167.519531 223.378906 C 166.371094 223.050781 165.46875 222.625 164.710938 222.125 C 166.90625 226.277344 169.292969 228.953125 171.707031 230.574219 C 174.578125 232.503906 177.5 232.953125 180.183594 232.652344 C 182.875 232.351562 185.8125 231.4375 188.234375 229.046875 C 190.675781 226.636719 192.621094 222.703125 193.324219 216.363281 L 193.402344 215.578125 Z M 189.144531 219.027344 C 192.308594 216.414062 193.503906 213.074219 193.566406 211.054688 C 193.574219 210.746094 193.824219 210.496094 194.128906 210.496094 C 194.445312 210.496094 194.699219 210.753906 194.699219 211.0625 C 194.707031 212.019531 194.691406 212.953125 194.648438 213.84375 C 194.609375 214.738281 194.542969 215.613281 194.449219 216.472656 C 193.71875 223.125 191.636719 227.277344 189.03125 229.855469 C 186.394531 232.460938 183.21875 233.453125 180.304688 233.773438 C 177.382812 234.09375 174.199219 233.609375 171.074219 231.511719 C 167.988281 229.441406 164.976562 225.800781 162.339844 219.832031 C 162.242188 219.597656 162.304688 219.320312 162.511719 219.15625 C 162.753906 218.960938 163.117188 219.003906 163.308594 219.246094 C 164.300781 220.503906 165.53125 221.609375 167.832031 222.273438 C 170.210938 222.964844 173.730469 223.210938 179.257812 222.714844 C 183.714844 222.324219 186.914062 220.855469 189.136719 219.019531 Z M 189.144531 219.027344 " fill-opacity="1" fill-rule="nonzero"/><path fill="#000000" d="M 64.941406 164.648438 L 68.84375 165.089844 C 69.855469 165.203125 70.6875 165.625 71.378906 166.367188 L 72.882812 167.980469 C 73.488281 168.636719 73.488281 169.644531 72.882812 170.300781 L 71.378906 171.914062 C 70.683594 172.664062 69.855469 173.082031 68.84375 173.191406 L 64.941406 173.632812 C 64.214844 173.710938 63.558594 173.503906 63.015625 173.019531 C 62.476562 172.535156 62.191406 171.90625 62.191406 171.171875 L 62.191406 167.101562 C 62.191406 166.375 62.476562 165.738281 63.015625 165.253906 C 63.558594 164.769531 64.214844 164.554688 64.941406 164.640625 Z M 64.941406 164.648438 " fill-opacity="1" fill-rule="evenodd"/><path fill="#000000" d="M 79.371094 159.179688 L 78.929688 163.089844 C 78.816406 164.105469 78.394531 164.941406 77.65625 165.632812 L 76.046875 167.136719 C 75.390625 167.746094 74.386719 167.746094 73.730469 167.136719 L 72.121094 165.632812 C 71.371094 164.933594 70.953125 164.105469 70.84375 163.089844 L 70.402344 159.179688 C 70.324219 158.453125 70.53125 157.796875 71.015625 157.253906 C 71.5 156.710938 72.128906 156.425781 72.863281 156.425781 L 76.921875 156.425781 C 77.648438 156.425781 78.273438 156.710938 78.765625 157.253906 C 79.25 157.796875 79.464844 158.453125 79.378906 159.179688 Z M 79.371094 159.179688 " fill-opacity="1" fill-rule="evenodd"/><path fill="#000000" d="M 84.828125 164.648438 L 80.925781 165.089844 C 79.914062 165.203125 79.078125 165.625 78.382812 166.367188 L 76.878906 167.980469 C 76.265625 168.636719 76.265625 169.644531 76.878906 170.300781 L 78.382812 171.914062 C 79.078125 172.664062 79.914062 173.082031 80.925781 173.191406 L 84.828125 173.632812 C 85.554688 173.710938 86.210938 173.503906 86.75 173.019531 C 87.300781 172.535156 87.578125 171.90625 87.578125 171.171875 L 87.578125 167.101562 C 87.578125 166.375 87.300781 165.738281 86.75 165.253906 C 86.210938 164.769531 85.554688 164.554688 84.828125 164.640625 Z M 84.828125 164.648438 " fill-opacity="1" fill-rule="evenodd"/><path fill="#000000" d="M 79.371094 179.105469 L 78.929688 175.195312 C 78.816406 174.183594 78.394531 173.347656 77.65625 172.65625 L 76.046875 171.148438 C 75.390625 170.542969 74.386719 170.542969 73.730469 171.148438 L 72.121094 172.65625 C 71.371094 173.355469 70.953125 174.191406 70.84375 175.195312 L 70.402344 179.105469 C 70.324219 179.835938 70.53125 180.492188 71.015625 181.035156 C 71.5 181.578125 72.128906 181.863281 72.863281 181.863281 L 76.921875 181.863281 C 77.648438 181.863281 78.273438 181.578125 78.765625 181.035156 C 79.25 180.492188 79.464844 179.835938 79.378906 179.105469 Z M 79.371094 179.105469 " fill-opacity="1" fill-rule="evenodd"/><path fill="#000000" d="M 116.617188 177.945312 C 116.617188 178.175781 116.535156 178.375 116.371094 178.539062 C 116.207031 178.703125 116.007812 178.785156 115.777344 178.785156 C 115.546875 178.785156 115.347656 178.703125 115.183594 178.539062 C 115.019531 178.375 114.9375 178.175781 114.9375 177.945312 C 114.9375 177.710938 115.019531 177.511719 115.183594 177.347656 C 115.347656 177.183594 115.546875 177.101562 115.777344 177.101562 C 116.007812 177.101562 116.207031 177.183594 116.371094 177.347656 C 116.535156 177.511719 116.617188 177.710938 116.617188 177.945312 Z M 116.617188 177.945312 " fill-opacity="1" fill-rule="nonzero"/><path fill="#000000" d="M 119.21875 177.945312 C 119.21875 178.175781 119.136719 178.375 118.972656 178.539062 C 118.808594 178.703125 118.609375 178.785156 118.378906 178.785156 C 118.144531 178.785156 117.945312 178.703125 117.78125 178.539062 C 117.617188 178.375 117.535156 178.175781 117.535156 177.945312 C 117.535156 177.710938 117.617188 177.511719 117.78125 177.347656 C 117.945312 177.183594 118.144531 177.101562 118.378906 177.101562 C 118.609375 177.101562 118.808594 177.183594 118.972656 177.347656 C 119.136719 177.511719 119.21875 177.710938 119.21875 177.945312 Z M 119.21875 177.945312 " fill-opacity="1" fill-rule="nonzero"/><path fill="#000000" d="M 121.816406 177.945312 C 121.816406 178.175781 121.734375 178.375 121.570312 178.539062 C 121.40625 178.703125 121.210938 178.785156 120.976562 178.785156 C 120.746094 178.785156 120.546875 178.703125 120.382812 178.539062 C 120.21875 178.375 120.136719 178.175781 120.136719 177.945312 C 120.136719 177.710938 120.21875 177.511719 120.382812 177.347656 C 120.546875 177.183594 120.746094 177.101562 120.976562 177.101562 C 121.210938 177.101562 121.40625 177.183594 121.570312 177.347656 C 121.734375 177.511719 121.816406 177.710938 121.816406 177.945312 Z M 121.816406 177.945312 " fill-opacity="1" fill-rule="nonzero"/><path fill="#000000" d="M 124.417969 177.945312 C 124.417969 178.175781 124.335938 178.375 124.171875 178.539062 C 124.007812 178.703125 123.808594 178.785156 123.578125 178.785156 C 123.34375 178.785156 123.148438 178.703125 122.984375 178.539062 C 122.820312 178.375 122.738281 178.175781 122.738281 177.945312 C 122.738281 177.710938 122.820312 177.511719 122.984375 177.347656 C 123.148438 177.183594 123.34375 177.101562 123.578125 177.101562 C 123.808594 177.101562 124.007812 177.183594 124.171875 177.347656 C 124.335938 177.511719 124.417969 177.710938 124.417969 177.945312 Z M 124.417969 177.945312 " fill-opacity="1" fill-rule="nonzero"/><path fill="#000000" d="M 127.015625 177.945312 C 127.015625 178.175781 126.933594 178.375 126.769531 178.539062 C 126.605469 178.703125 126.410156 178.785156 126.175781 178.785156 C 125.945312 178.785156 125.746094 178.703125 125.582031 178.539062 C 125.417969 178.375 125.335938 178.175781 125.335938 177.945312 C 125.335938 177.710938 125.417969 177.511719 125.582031 177.347656 C 125.746094 177.183594 125.945312 177.101562 126.175781 177.101562 C 126.410156 177.101562 126.605469 177.183594 126.769531 177.347656 C 126.933594 177.511719 127.015625 177.710938 127.015625 177.945312 Z M 127.015625 177.945312 " fill-opacity="1" fill-rule="nonzero"/><path fill="#000000" d="M 117.921875 179.90625 C 117.921875 180.140625 117.839844 180.335938 117.675781 180.503906 C 117.511719 180.667969 117.3125 180.75 117.082031 180.75 C 116.847656 180.75 116.652344 180.667969 116.488281 180.503906 C 116.324219 180.335938 116.242188 180.140625 116.242188 179.90625 C 116.242188 179.675781 116.324219 179.476562 116.488281 179.3125 C 116.652344 179.148438 116.847656 179.066406 117.082031 179.066406 C 117.3125 179.066406 117.511719 179.148438 117.675781 179.3125 C 117.839844 179.476562 117.921875 179.675781 117.921875 179.90625 Z M 117.921875 179.90625 " fill-opacity="1" fill-rule="nonzero"/><path fill="#000000" d="M 120.519531 179.90625 C 120.519531 180.140625 120.4375 180.335938 120.273438 180.503906 C 120.109375 180.667969 119.914062 180.75 119.679688 180.75 C 119.449219 180.75 119.25 180.667969 119.085938 180.503906 C 118.921875 180.335938 118.839844 180.140625 118.839844 179.90625 C 118.839844 179.675781 118.921875 179.476562 119.085938 179.3125 C 119.25 179.148438 119.449219 179.066406 119.679688 179.066406 C 119.914062 179.066406 120.109375 179.148438 120.273438 179.3125 C 120.4375 179.476562 120.519531 179.675781 120.519531 179.90625 Z M 120.519531 179.90625 " fill-opacity="1" fill-rule="nonzero"/><path fill="#000000" d="M 123.121094 179.90625 C 123.121094 180.140625 123.039062 180.335938 122.875 180.503906 C 122.710938 180.667969 122.511719 180.75 122.28125 180.75 C 122.046875 180.75 121.851562 180.667969 121.6875 180.503906 C 121.523438 180.335938 121.441406 180.140625 121.441406 179.90625 C 121.441406 179.675781 121.523438 179.476562 121.6875 179.3125 C 121.851562 179.148438 122.046875 179.066406 122.28125 179.066406 C 122.511719 179.066406 122.710938 179.148438 122.875 179.3125 C 123.039062 179.476562 123.121094 179.675781 123.121094 179.90625 Z M 123.121094 179.90625 " fill-opacity="1" fill-rule="nonzero"/><path fill="#000000" d="M 125.722656 179.90625 C 125.722656 180.140625 125.640625 180.335938 125.476562 180.503906 C 125.3125 180.667969 125.113281 180.75 124.878906 180.75 C 124.648438 180.75 124.449219 180.667969 124.285156 180.503906 C 124.121094 180.335938 124.039062 180.140625 124.039062 179.90625 C 124.039062 179.675781 124.121094 179.476562 124.285156 179.3125 C 124.449219 179.148438 124.648438 179.066406 124.878906 179.066406 C 125.113281 179.066406 125.3125 179.148438 125.476562 179.3125 C 125.640625 179.476562 125.722656 179.675781 125.722656 179.90625 Z M 125.722656 179.90625 " fill-opacity="1" fill-rule="nonzero"/><path fill="#000000" d="M 119.21875 181.8125 C 119.21875 182.046875 119.136719 182.242188 118.972656 182.40625 C 118.808594 182.574219 118.609375 182.65625 118.378906 182.65625 C 118.144531 182.65625 117.945312 182.574219 117.78125 182.40625 C 117.617188 182.242188 117.535156 182.046875 117.535156 181.8125 C 117.535156 181.578125 117.617188 181.382812 117.78125 181.21875 C 117.945312 181.050781 118.144531 180.96875 118.378906 180.96875 C 118.609375 180.96875 118.808594 181.050781 118.972656 181.21875 C 119.136719 181.382812 119.21875 181.578125 119.21875 181.8125 Z M 119.21875 181.8125 " fill-opacity="1" fill-rule="nonzero"/><path fill="#000000" d="M 121.816406 181.8125 C 121.816406 182.046875 121.734375 182.242188 121.570312 182.40625 C 121.40625 182.574219 121.210938 182.65625 120.976562 182.65625 C 120.746094 182.65625 120.546875 182.574219 120.382812 182.40625 C 120.21875 182.242188 120.136719 182.046875 120.136719 181.8125 C 120.136719 181.578125 120.21875 181.382812 120.382812 181.21875 C 120.546875 181.050781 120.746094 180.96875 120.976562 180.96875 C 121.210938 180.96875 121.40625 181.050781 121.570312 181.21875 C 121.734375 181.382812 121.816406 181.578125 121.816406 181.8125 Z M 121.816406 181.8125 " fill-opacity="1" fill-rule="nonzero"/><path fill="#000000" d="M 124.417969 181.8125 C 124.417969 182.046875 124.335938 182.242188 124.171875 182.40625 C 124.007812 182.574219 123.808594 182.65625 123.578125 182.65625 C 123.34375 182.65625 123.148438 182.574219 122.984375 182.40625 C 122.820312 182.242188 122.738281 182.046875 122.738281 181.8125 C 122.738281 181.578125 122.820312 181.382812 122.984375 181.21875 C 123.148438 181.050781 123.34375 180.96875 123.578125 180.96875 C 123.808594 180.96875 124.007812 181.050781 124.171875 181.21875 C 124.335938 181.382812 124.417969 181.578125 124.417969 181.8125 Z M 124.417969 181.8125 " fill-opacity="1" fill-rule="nonzero"/><g fill="#403542" fill-opacity="1"><g transform="translate(188.414128, 190.261248)"><g><path d="M 12.078125 0.3125 C 10.023438 0.3125 8.210938 -0.125 6.640625 -1 C 5.066406 -1.875 3.847656 -3.117188 2.984375 -4.734375 C 2.117188 -6.347656 1.6875 -8.207031 1.6875 -10.3125 L 1.6875 -17.6875 C 1.6875 -19.789062 2.117188 -21.648438 2.984375 -23.265625 C 3.847656 -24.878906 5.070312 -26.125 6.65625 -27 C 8.25 -27.875 10.082031 -28.3125 12.15625 -28.3125 L 16.640625 -28.3125 C 18.640625 -28.3125 20.398438 -27.910156 21.921875 -27.109375 C 23.441406 -26.316406 24.617188 -25.1875 25.453125 -23.71875 C 26.296875 -22.25 26.71875 -20.554688 26.71875 -18.640625 L 21.28125 -18.640625 C 21.28125 -20.078125 20.851562 -21.234375 20 -22.109375 C 19.144531 -22.992188 18.023438 -23.4375 16.640625 -23.4375 L 12.15625 -23.4375 C 10.664062 -23.4375 9.46875 -22.882812 8.5625 -21.78125 C 7.65625 -20.675781 7.203125 -19.226562 7.203125 -17.4375 L 7.203125 -10.5625 C 7.203125 -8.769531 7.644531 -7.320312 8.53125 -6.21875 C 9.425781 -5.113281 10.609375 -4.5625 12.078125 -4.5625 L 16.796875 -4.5625 C 18.160156 -4.5625 19.285156 -5.050781 20.171875 -6.03125 C 21.066406 -7.019531 21.515625 -8.25 21.515625 -9.71875 L 21.515625 -10.59375 L 13.765625 -10.59375 L 13.765625 -15.40625 L 26.953125 -15.40625 L 26.953125 -9.71875 C 26.953125 -7.769531 26.523438 -6.035156 25.671875 -4.515625 C 24.828125 -2.992188 23.628906 -1.804688 22.078125 -0.953125 C 20.535156 -0.109375 18.773438 0.3125 16.796875 0.3125 Z M 12.078125 0.3125 "/></g></g></g><g fill="#403542" fill-opacity="1"><g transform="translate(216.891295, 190.261248)"><g><path d="M 18.875 -6.515625 L 8.40625 -6.515625 L 5.921875 0 L 0.15625 0 L 11.125 -28 L 13.59375 -28 C 15.332031 -28 16.507812 -27.195312 17.125 -25.59375 L 27.078125 0 L 21.3125 0 Z M 9.875 -11.15625 L 17.40625 -11.15625 L 13.6875 -21.234375 L 13.640625 -21.234375 Z M 9.875 -11.15625 "/></g></g></g><g fill="#403542" fill-opacity="1"><g transform="translate(244.128586, 190.261248)"><g><path d="M 2.484375 -28 L 7.40625 -28 L 16.5625 -11.359375 L 25.515625 -28 L 30.4375 -28 L 30.4375 0 L 25.046875 0 L 25.046875 -17.71875 L 19.15625 -7.078125 C 18.757812 -6.359375 18.351562 -5.84375 17.9375 -5.53125 C 17.519531 -5.226562 17.046875 -5.078125 16.515625 -5.078125 L 15 -5.078125 L 7.875 -17.71875 L 7.875 0 L 2.484375 0 Z M 2.484375 -28 "/></g></g></g><g fill="#403542" fill-opacity="1"><g transform="translate(277.045317, 190.261248)"><g><path d="M 6.359375 0 C 5.210938 0 4.28125 -0.34375 3.5625 -1.03125 C 2.84375 -1.726562 2.484375 -2.640625 2.484375 -3.765625 L 2.484375 -28 L 23.84375 -28 L 23.84375 -23.203125 L 8 -23.203125 L 8 -16.71875 L 22.640625 -16.71875 L 22.640625 -11.921875 L 8 -11.921875 L 8 -4.796875 L 23.84375 -4.796875 L 23.84375 0 Z M 6.359375 0 "/></g></g></g><g fill="#403542" fill-opacity="1"><g transform="translate(302.162819, 190.261248)"><g><path d="M 10.875 0.3125 C 7.945312 0.3125 5.65625 -0.503906 4 -2.140625 C 2.34375 -3.773438 1.515625 -6.0625 1.515625 -9 L 6.953125 -9 C 6.953125 -7.613281 7.304688 -6.523438 8.015625 -5.734375 C 8.722656 -4.953125 9.703125 -4.5625 10.953125 -4.5625 L 15.40625 -4.5625 C 16.570312 -4.5625 17.519531 -4.804688 18.25 -5.296875 C 18.988281 -5.796875 19.359375 -6.457031 19.359375 -7.28125 L 19.359375 -8.640625 C 19.359375 -9.941406 18.398438 -10.753906 16.484375 -11.078125 L 9.125 -12.3125 C 6.71875 -12.71875 4.894531 -13.484375 3.65625 -14.609375 C 2.414062 -15.742188 1.796875 -17.191406 1.796875 -18.953125 L 1.796875 -21.203125 C 1.796875 -22.609375 2.175781 -23.851562 2.9375 -24.9375 C 3.695312 -26.019531 4.773438 -26.851562 6.171875 -27.4375 C 7.578125 -28.019531 9.203125 -28.3125 11.046875 -28.3125 L 15.5625 -28.3125 C 17.289062 -28.3125 18.820312 -27.953125 20.15625 -27.234375 C 21.488281 -26.515625 22.519531 -25.507812 23.25 -24.21875 C 23.988281 -22.925781 24.359375 -21.425781 24.359375 -19.71875 L 18.921875 -19.71875 C 18.921875 -20.84375 18.613281 -21.742188 18 -22.421875 C 17.382812 -23.097656 16.570312 -23.4375 15.5625 -23.4375 L 11.046875 -23.4375 C 9.921875 -23.4375 9.015625 -23.195312 8.328125 -22.71875 C 7.648438 -22.238281 7.3125 -21.597656 7.3125 -20.796875 L 7.3125 -19.71875 C 7.3125 -18.382812 8.234375 -17.554688 10.078125 -17.234375 L 17.40625 -15.953125 C 19.832031 -15.523438 21.679688 -14.769531 22.953125 -13.6875 C 24.234375 -12.613281 24.875 -11.222656 24.875 -9.515625 L 24.875 -6.875 C 24.875 -5.46875 24.476562 -4.21875 23.6875 -3.125 C 22.90625 -2.03125 21.804688 -1.179688 20.390625 -0.578125 C 18.984375 0.015625 17.347656 0.3125 15.484375 0.3125 Z M 10.875 0.3125 "/></g></g></g><g fill="#403542" fill-opacity="1"><g transform="translate(205.563214, 216.950069)"><g><path d="M 5.953125 0.1875 C 5.035156 0.1875 4.222656 -0.00390625 3.515625 -0.390625 C 2.816406 -0.785156 2.269531 -1.335938 1.875 -2.046875 C 1.476562 -2.765625 1.28125 -3.59375 1.28125 -4.53125 L 2.9375 -4.53125 C 2.9375 -3.582031 3.21875 -2.8125 3.78125 -2.21875 C 4.34375 -1.625 5.082031 -1.328125 6 -1.328125 L 8.5625 -1.328125 C 9.457031 -1.328125 10.179688 -1.53125 10.734375 -1.9375 C 11.285156 -2.34375 11.5625 -2.878906 11.5625 -3.546875 L 11.5625 -5.015625 C 11.5625 -5.535156 11.359375 -5.976562 10.953125 -6.34375 C 10.546875 -6.71875 9.992188 -6.957031 9.296875 -7.0625 L 5.15625 -7.75 C 3.988281 -7.945312 3.082031 -8.359375 2.4375 -8.984375 C 1.789062 -9.617188 1.46875 -10.410156 1.46875 -11.359375 L 1.46875 -12.609375 C 1.46875 -13.722656 1.882812 -14.613281 2.71875 -15.28125 C 3.5625 -15.945312 4.671875 -16.28125 6.046875 -16.28125 L 8.640625 -16.28125 C 9.953125 -16.28125 11.003906 -15.882812 11.796875 -15.09375 C 12.597656 -14.3125 13 -13.273438 13 -11.984375 L 11.34375 -11.984375 C 11.34375 -12.828125 11.09375 -13.5 10.59375 -14 C 10.101562 -14.507812 9.453125 -14.765625 8.640625 -14.765625 L 6.046875 -14.765625 C 5.171875 -14.765625 4.472656 -14.566406 3.953125 -14.171875 C 3.429688 -13.785156 3.171875 -13.265625 3.171875 -12.609375 L 3.171875 -11.359375 C 3.171875 -10.828125 3.363281 -10.375 3.75 -10 C 4.144531 -9.632812 4.6875 -9.390625 5.375 -9.265625 L 9.5 -8.5625 C 10.695312 -8.34375 11.625 -7.929688 12.28125 -7.328125 C 12.9375 -6.722656 13.265625 -5.953125 13.265625 -5.015625 L 13.265625 -3.546875 C 13.265625 -2.421875 12.832031 -1.515625 11.96875 -0.828125 C 11.113281 -0.148438 9.992188 0.1875 8.609375 0.1875 Z M 5.953125 0.1875 "/></g></g></g><g fill="#403542" fill-opacity="1"><g transform="translate(224.924445, 216.950069)"><g><path d="M 5.796875 -14.625 L 0.6875 -14.625 L 0.6875 -16.09375 L 12.609375 -16.09375 L 12.609375 -14.625 L 7.5 -14.625 L 7.5 0 L 5.796875 0 Z M 5.796875 -14.625 "/></g></g></g><g fill="#403542" fill-opacity="1"><g transform="translate(243.15905, 216.950069)"><g><path d="M 6.71875 0.1875 C 5.738281 0.1875 4.867188 -0.03125 4.109375 -0.46875 C 3.359375 -0.90625 2.773438 -1.523438 2.359375 -2.328125 C 1.953125 -3.140625 1.75 -4.066406 1.75 -5.109375 L 1.75 -16.09375 L 3.453125 -16.09375 L 3.453125 -5.0625 C 3.453125 -3.9375 3.75 -3.03125 4.34375 -2.34375 C 4.945312 -1.664062 5.738281 -1.328125 6.71875 -1.328125 L 9.203125 -1.328125 C 10.179688 -1.328125 10.96875 -1.664062 11.5625 -2.34375 C 12.164062 -3.03125 12.46875 -3.9375 12.46875 -5.0625 L 12.46875 -16.09375 L 14.171875 -16.09375 L 14.171875 -5.109375 C 14.171875 -4.066406 13.960938 -3.140625 13.546875 -2.328125 C 13.128906 -1.523438 12.546875 -0.90625 11.796875 -0.46875 C 11.046875 -0.03125 10.179688 0.1875 9.203125 0.1875 Z M 6.71875 0.1875 "/></g></g></g><g fill="#403542" fill-opacity="1"><g transform="translate(264.014779, 216.950069)"><g><path d="M 3.328125 0 C 2.859375 0 2.492188 -0.128906 2.234375 -0.390625 C 1.972656 -0.648438 1.84375 -1.019531 1.84375 -1.5 L 1.84375 -16.09375 L 8.515625 -16.09375 C 9.648438 -16.09375 10.644531 -15.875 11.5 -15.4375 C 12.351562 -15 13.019531 -14.378906 13.5 -13.578125 C 13.976562 -12.773438 14.21875 -11.851562 14.21875 -10.8125 L 14.21875 -5.75 C 14.21875 -3.863281 13.738281 -2.429688 12.78125 -1.453125 C 11.832031 -0.484375 10.441406 0 8.609375 0 Z M 8.5625 -1.515625 C 9.863281 -1.515625 10.847656 -1.867188 11.515625 -2.578125 C 12.179688 -3.296875 12.515625 -4.351562 12.515625 -5.75 L 12.515625 -10.8125 C 12.515625 -11.925781 12.140625 -12.832031 11.390625 -13.53125 C 10.648438 -14.226562 9.675781 -14.578125 8.46875 -14.578125 L 3.546875 -14.578125 L 3.546875 -1.515625 Z M 8.5625 -1.515625 "/></g></g></g><g fill="#403542" fill-opacity="1"><g transform="translate(284.456638, 216.950069)"><g><path d="M 2.0625 -16.09375 L 3.765625 -16.09375 L 3.765625 0 L 2.0625 0 Z M 2.0625 -16.09375 "/></g></g></g><g fill="#403542" fill-opacity="1"><g transform="translate(295.241756, 216.950069)"><g><path d="M 6.765625 0.1875 C 5.703125 0.1875 4.765625 -0.046875 3.953125 -0.515625 C 3.140625 -0.992188 2.503906 -1.671875 2.046875 -2.546875 C 1.597656 -3.421875 1.375 -4.4375 1.375 -5.59375 L 1.375 -10.515625 C 1.375 -11.660156 1.597656 -12.671875 2.046875 -13.546875 C 2.503906 -14.421875 3.140625 -15.09375 3.953125 -15.5625 C 4.765625 -16.039062 5.707031 -16.28125 6.78125 -16.28125 L 9.21875 -16.28125 C 10.289062 -16.28125 11.234375 -16.039062 12.046875 -15.5625 C 12.859375 -15.09375 13.488281 -14.421875 13.9375 -13.546875 C 14.394531 -12.671875 14.625 -11.660156 14.625 -10.515625 L 14.625 -5.59375 C 14.625 -4.4375 14.394531 -3.425781 13.9375 -2.5625 C 13.488281 -1.695312 12.851562 -1.019531 12.03125 -0.53125 C 11.21875 -0.0507812 10.28125 0.1875 9.21875 0.1875 Z M 9.171875 -1.328125 C 10.296875 -1.328125 11.203125 -1.71875 11.890625 -2.5 C 12.578125 -3.289062 12.921875 -4.320312 12.921875 -5.59375 L 12.921875 -10.515625 C 12.921875 -11.785156 12.578125 -12.8125 11.890625 -13.59375 C 11.203125 -14.375 10.296875 -14.765625 9.171875 -14.765625 L 6.828125 -14.765625 C 5.710938 -14.765625 4.804688 -14.375 4.109375 -13.59375 C 3.421875 -12.8125 3.078125 -11.785156 3.078125 -10.515625 L 3.078125 -5.59375 C 3.078125 -4.320312 3.414062 -3.289062 4.09375 -2.5 C 4.78125 -1.71875 5.6875 -1.328125 6.8125 -1.328125 Z M 9.171875 -1.328125 "/></g></g></g></svg>